<svg xmlns="http://www.w3.org/2000/svg" xmlns:xlink="http://www.w3.org/1999/xlink" width="250" zoomAndPan="magnify" viewBox="0 0 187.5 187.499992" height="250" preserveAspectRatio="xMidYMid meet" version="1.2"><defs><clipPath id="ceddde8177"><path d="M 0 118 L 187 118 L 187 173.910156 L 0 173.910156 Z M 0 118 "/></clipPath></defs><g id="88dbd07a0f"><path style=" stroke:none;fill-rule:nonzero;fill:#885da7;fill-opacity:1;" d="M 40.90625 115.121094 C 41.480469 115.121094 42.054688 115.09375 42.625 115.039062 C 43.195312 114.980469 43.761719 114.898438 44.328125 114.785156 C 44.890625 114.671875 45.445312 114.535156 45.996094 114.367188 C 46.546875 114.199219 47.085938 114.007812 47.617188 113.789062 C 48.144531 113.570312 48.664062 113.324219 49.171875 113.050781 C 49.675781 112.78125 50.167969 112.488281 50.644531 112.167969 C 51.125 111.847656 51.585938 111.507812 52.027344 111.144531 C 52.472656 110.777344 52.898438 110.394531 53.304688 109.988281 C 53.710938 109.582031 54.09375 109.15625 54.457031 108.714844 C 54.824219 108.269531 55.164062 107.808594 55.484375 107.332031 C 55.800781 106.855469 56.097656 106.363281 56.367188 105.855469 C 56.636719 105.347656 56.882812 104.832031 57.101562 104.300781 C 57.324219 103.769531 57.515625 103.230469 57.683594 102.679688 C 57.851562 102.132812 57.988281 101.574219 58.101562 101.011719 C 58.214844 100.449219 58.296875 99.882812 58.351562 99.308594 C 58.410156 98.738281 58.4375 98.164062 58.4375 97.589844 C 58.4375 97.015625 58.410156 96.445312 58.351562 95.871094 C 58.296875 95.300781 58.214844 94.734375 58.101562 94.171875 C 57.988281 93.609375 57.851562 93.050781 57.683594 92.503906 C 57.515625 91.953125 57.324219 91.414062 57.101562 90.882812 C 56.882812 90.351562 56.636719 89.832031 56.367188 89.328125 C 56.097656 88.820312 55.800781 88.328125 55.484375 87.851562 C 55.164062 87.375 54.824219 86.914062 54.457031 86.46875 C 54.09375 86.027344 53.710938 85.601562 53.304688 85.195312 C 52.898438 84.789062 52.472656 84.402344 52.027344 84.039062 C 51.585938 83.675781 51.125 83.332031 50.644531 83.015625 C 50.167969 82.695312 49.675781 82.402344 49.171875 82.128906 C 48.664062 81.859375 48.144531 81.613281 47.617188 81.394531 C 47.085938 81.175781 46.546875 80.980469 45.996094 80.816406 C 45.445312 80.648438 44.890625 80.507812 44.328125 80.398438 C 43.761719 80.285156 43.195312 80.199219 42.625 80.144531 C 42.054688 80.089844 41.480469 80.058594 40.90625 80.058594 C 40.332031 80.058594 39.757812 80.089844 39.1875 80.144531 C 38.617188 80.199219 38.050781 80.285156 37.488281 80.398438 C 36.921875 80.507812 36.367188 80.648438 35.816406 80.816406 C 35.269531 80.980469 34.726562 81.175781 34.199219 81.394531 C 33.667969 81.613281 33.148438 81.859375 32.640625 82.128906 C 32.136719 82.402344 31.644531 82.695312 31.167969 83.015625 C 30.6875 83.332031 30.230469 83.675781 29.785156 84.039062 C 29.339844 84.402344 28.914062 84.789062 28.511719 85.195312 C 28.105469 85.601562 27.71875 86.027344 27.355469 86.46875 C 26.992188 86.914062 26.648438 87.375 26.328125 87.851562 C 26.011719 88.328125 25.714844 88.820312 25.445312 89.328125 C 25.175781 89.832031 24.929688 90.351562 24.710938 90.882812 C 24.488281 91.414062 24.296875 91.953125 24.128906 92.503906 C 23.964844 93.050781 23.824219 93.609375 23.710938 94.171875 C 23.601562 94.734375 23.515625 95.300781 23.460938 95.871094 C 23.402344 96.445312 23.375 97.015625 23.375 97.589844 C 23.375 98.164062 23.402344 98.738281 23.460938 99.308594 C 23.515625 99.882812 23.601562 100.449219 23.710938 101.011719 C 23.824219 101.574219 23.964844 102.132812 24.128906 102.679688 C 24.296875 103.230469 24.488281 103.769531 24.710938 104.300781 C 24.929688 104.832031 25.175781 105.347656 25.445312 105.855469 C 25.714844 106.363281 26.011719 106.855469 26.328125 107.332031 C 26.648438 107.808594 26.992188 108.269531 27.355469 108.714844 C 27.71875 109.15625 28.105469 109.582031 28.511719 109.988281 C 28.914062 110.394531 29.339844 110.777344 29.785156 111.144531 C 30.230469 111.507812 30.6875 111.847656 31.167969 112.167969 C 31.644531 112.488281 32.136719 112.78125 32.640625 113.050781 C 33.148438 113.324219 33.667969 113.570312 34.199219 113.789062 C 34.726562 114.007812 35.269531 114.199219 35.816406 114.367188 C 36.367188 114.535156 36.921875 114.671875 37.488281 114.785156 C 38.050781 114.898438 38.617188 114.980469 39.1875 115.039062 C 39.757812 115.09375 40.332031 115.121094 40.90625 115.121094 Z M 40.90625 85.902344 C 41.675781 85.902344 42.433594 85.980469 43.1875 86.128906 C 43.9375 86.277344 44.671875 86.5 45.378906 86.792969 C 46.089844 87.085938 46.761719 87.445312 47.398438 87.875 C 48.039062 88.300781 48.628906 88.785156 49.171875 89.328125 C 49.714844 89.871094 50.199219 90.460938 50.625 91.097656 C 51.050781 91.734375 51.410156 92.410156 51.703125 93.117188 C 52 93.828125 52.21875 94.558594 52.371094 95.3125 C 52.519531 96.0625 52.59375 96.824219 52.59375 97.589844 C 52.59375 98.359375 52.519531 99.117188 52.371094 99.871094 C 52.21875 100.625 52 101.355469 51.703125 102.0625 C 51.410156 102.773438 51.050781 103.445312 50.625 104.085938 C 50.199219 104.722656 49.714844 105.3125 49.171875 105.855469 C 48.628906 106.398438 48.039062 106.882812 47.398438 107.308594 C 46.761719 107.734375 46.089844 108.09375 45.378906 108.390625 C 44.671875 108.683594 43.9375 108.90625 43.1875 109.054688 C 42.433594 109.203125 41.675781 109.277344 40.90625 109.277344 C 40.140625 109.277344 39.378906 109.203125 38.625 109.054688 C 37.875 108.90625 37.144531 108.683594 36.433594 108.390625 C 35.726562 108.09375 35.050781 107.734375 34.414062 107.308594 C 33.773438 106.882812 33.183594 106.398438 32.640625 105.855469 C 32.097656 105.3125 31.613281 104.722656 31.1875 104.085938 C 30.761719 103.445312 30.402344 102.773438 30.109375 102.0625 C 29.816406 101.355469 29.59375 100.625 29.445312 99.871094 C 29.292969 99.117188 29.21875 98.359375 29.21875 97.589844 C 29.21875 96.824219 29.292969 96.0625 29.445312 95.3125 C 29.59375 94.558594 29.816406 93.828125 30.109375 93.117188 C 30.402344 92.410156 30.761719 91.734375 31.1875 91.097656 C 31.613281 90.460938 32.097656 89.871094 32.640625 89.328125 C 33.183594 88.785156 33.773438 88.300781 34.414062 87.875 C 35.050781 87.445312 35.726562 87.085938 36.433594 86.792969 C 37.144531 86.5 37.875 86.277344 38.625 86.128906 C 39.378906 85.980469 40.140625 85.902344 40.90625 85.902344 Z M 40.90625 85.902344 "/><path style=" stroke:none;fill-rule:nonzero;fill:#885da7;fill-opacity:1;" d="M 146.09375 115.121094 C 146.667969 115.121094 147.242188 115.09375 147.8125 115.039062 C 148.382812 114.980469 148.953125 114.898438 149.515625 114.785156 C 150.078125 114.671875 150.632812 114.535156 151.183594 114.367188 C 151.734375 114.199219 152.273438 114.007812 152.804688 113.789062 C 153.335938 113.570312 153.851562 113.324219 154.359375 113.050781 C 154.867188 112.78125 155.355469 112.488281 155.835938 112.167969 C 156.3125 111.847656 156.773438 111.507812 157.214844 111.144531 C 157.660156 110.777344 158.085938 110.394531 158.492188 109.988281 C 158.898438 109.582031 159.28125 109.15625 159.648438 108.714844 C 160.011719 108.269531 160.351562 107.808594 160.671875 107.332031 C 160.992188 106.855469 161.285156 106.363281 161.554688 105.855469 C 161.828125 105.347656 162.070312 104.832031 162.292969 104.300781 C 162.511719 103.769531 162.703125 103.230469 162.871094 102.679688 C 163.039062 102.132812 163.175781 101.574219 163.289062 101.011719 C 163.402344 100.449219 163.484375 99.882812 163.542969 99.308594 C 163.597656 98.738281 163.625 98.164062 163.625 97.589844 C 163.625 97.015625 163.597656 96.445312 163.542969 95.871094 C 163.484375 95.300781 163.402344 94.734375 163.289062 94.171875 C 163.175781 93.609375 163.039062 93.050781 162.871094 92.503906 C 162.703125 91.953125 162.511719 91.414062 162.292969 90.882812 C 162.070312 90.351562 161.828125 89.832031 161.554688 89.328125 C 161.285156 88.820312 160.992188 88.328125 160.671875 87.851562 C 160.351562 87.375 160.011719 86.914062 159.648438 86.46875 C 159.28125 86.027344 158.898438 85.601562 158.492188 85.195312 C 158.085938 84.789062 157.660156 84.402344 157.214844 84.039062 C 156.773438 83.675781 156.3125 83.332031 155.835938 83.015625 C 155.355469 82.695312 154.867188 82.402344 154.359375 82.128906 C 153.851562 81.859375 153.335938 81.613281 152.804688 81.394531 C 152.273438 81.175781 151.734375 80.980469 151.183594 80.816406 C 150.632812 80.648438 150.078125 80.507812 149.515625 80.398438 C 148.953125 80.285156 148.382812 80.199219 147.8125 80.144531 C 147.242188 80.089844 146.667969 80.058594 146.09375 80.058594 C 145.519531 80.058594 144.949219 80.089844 144.375 80.144531 C 143.804688 80.199219 143.238281 80.285156 142.675781 80.398438 C 142.113281 80.507812 141.554688 80.648438 141.003906 80.816406 C 140.457031 80.980469 139.917969 81.175781 139.386719 81.394531 C 138.855469 81.613281 138.335938 81.859375 137.832031 82.128906 C 137.324219 82.402344 136.832031 82.695312 136.355469 83.015625 C 135.878906 83.332031 135.417969 83.675781 134.972656 84.039062 C 134.527344 84.402344 134.105469 84.789062 133.699219 85.195312 C 133.292969 85.601562 132.90625 86.027344 132.542969 86.46875 C 132.179688 86.914062 131.835938 87.375 131.519531 87.851562 C 131.199219 88.328125 130.902344 88.820312 130.632812 89.328125 C 130.363281 89.832031 130.117188 90.351562 129.898438 90.882812 C 129.679688 91.414062 129.484375 91.953125 129.316406 92.503906 C 129.152344 93.050781 129.011719 93.609375 128.898438 94.171875 C 128.789062 94.734375 128.703125 95.300781 128.648438 95.871094 C 128.589844 96.445312 128.5625 97.015625 128.5625 97.589844 C 128.5625 98.164062 128.589844 98.738281 128.648438 99.308594 C 128.703125 99.882812 128.789062 100.449219 128.898438 101.011719 C 129.011719 101.574219 129.152344 102.132812 129.316406 102.679688 C 129.484375 103.230469 129.679688 103.769531 129.898438 104.300781 C 130.117188 104.832031 130.363281 105.347656 130.632812 105.855469 C 130.902344 106.363281 131.199219 106.855469 131.519531 107.332031 C 131.835938 107.808594 132.179688 108.269531 132.542969 108.714844 C 132.90625 109.15625 133.292969 109.582031 133.699219 109.988281 C 134.105469 110.394531 134.527344 110.777344 134.972656 111.144531 C 135.417969 111.507812 135.878906 111.847656 136.355469 112.167969 C 136.832031 112.488281 137.324219 112.78125 137.832031 113.050781 C 138.335938 113.324219 138.855469 113.570312 139.386719 113.789062 C 139.917969 114.007812 140.457031 114.199219 141.003906 114.367188 C 141.554688 114.535156 142.113281 114.671875 142.675781 114.785156 C 143.238281 114.898438 143.804688 114.980469 144.375 115.039062 C 144.949219 115.09375 145.519531 115.121094 146.09375 115.121094 Z M 146.09375 85.902344 C 146.863281 85.902344 147.621094 85.980469 148.375 86.128906 C 149.128906 86.277344 149.859375 86.5 150.566406 86.792969 C 151.277344 87.085938 151.949219 87.445312 152.589844 87.875 C 153.226562 88.300781 153.816406 88.785156 154.359375 89.328125 C 154.902344 89.871094 155.386719 90.460938 155.8125 91.097656 C 156.238281 91.734375 156.597656 92.410156 156.894531 93.117188 C 157.1875 93.828125 157.40625 94.558594 157.558594 95.3125 C 157.707031 96.0625 157.78125 96.824219 157.78125 97.589844 C 157.78125 98.359375 157.707031 99.117188 157.558594 99.871094 C 157.40625 100.625 157.1875 101.355469 156.894531 102.0625 C 156.597656 102.773438 156.238281 103.445312 155.8125 104.085938 C 155.386719 104.722656 154.902344 105.3125 154.359375 105.855469 C 153.816406 106.398438 153.226562 106.882812 152.589844 107.308594 C 151.949219 107.734375 151.277344 108.09375 150.566406 108.390625 C 149.859375 108.683594 149.128906 108.90625 148.375 109.054688 C 147.621094 109.203125 146.863281 109.277344 146.09375 109.277344 C 145.328125 109.277344 144.566406 109.203125 143.816406 109.054688 C 143.0625 108.90625 142.332031 108.683594 141.621094 108.390625 C 140.914062 108.09375 140.238281 107.734375 139.601562 107.308594 C 138.964844 106.882812 138.375 106.398438 137.832031 105.855469 C 137.289062 105.3125 136.804688 104.722656 136.375 104.085938 C 135.949219 103.445312 135.589844 102.773438 135.296875 102.0625 C 135.003906 101.355469 134.78125 100.625 134.632812 99.871094 C 134.480469 99.117188 134.40625 98.359375 134.40625 97.589844 C 134.40625 96.824219 134.480469 96.0625 134.632812 95.3125 C 134.78125 94.558594 135.003906 93.828125 135.296875 93.117188 C 135.589844 92.410156 135.949219 91.734375 136.375 91.097656 C 136.804688 90.460938 137.289062 89.871094 137.832031 89.328125 C 138.375 88.785156 138.964844 88.300781 139.601562 87.875 C 140.238281 87.445312 140.914062 87.085938 141.621094 86.792969 C 142.332031 86.5 143.0625 86.277344 143.816406 86.128906 C 144.566406 85.980469 145.328125 85.902344 146.09375 85.902344 Z M 146.09375 85.902344 "/><g clip-rule="nonzero" clip-path="url(#ceddde8177)"><path style=" stroke:none;fill-rule:nonzero;fill:#885da7;fill-opacity:1;" d="M 184.078125 167.71875 L 176.191406 167.71875 C 177.527344 165.996094 178.207031 164.050781 178.234375 161.871094 L 178.234375 135.574219 C 178.234375 125.90625 169.0625 118.042969 157.78125 118.042969 L 134.40625 118.042969 C 124.296875 118.042969 115.882812 124.386719 114.273438 132.652344 L 102.265625 132.652344 C 101.816406 132.652344 101.390625 132.746094 100.984375 132.941406 C 100.578125 133.136719 100.238281 133.410156 99.957031 133.765625 C 99.679688 134.121094 99.496094 134.519531 99.40625 134.960938 C 99.3125 135.402344 99.320312 135.839844 99.433594 136.277344 L 107.292969 167.71875 L 79.710938 167.71875 L 87.65625 136.277344 C 87.769531 135.839844 87.777344 135.402344 87.683594 134.960938 C 87.59375 134.519531 87.40625 134.121094 87.132812 133.765625 C 86.84375 133.398438 86.488281 133.117188 86.066406 132.921875 C 85.644531 132.726562 85.199219 132.636719 84.734375 132.652344 L 72.726562 132.652344 C 71.117188 124.386719 62.703125 118.042969 52.59375 118.042969 L 29.21875 118.042969 C 17.941406 118.042969 8.765625 125.90625 8.765625 135.574219 L 8.765625 161.871094 C 8.792969 164.050781 9.476562 165.996094 10.8125 167.71875 L 2.921875 167.71875 C 2.535156 167.71875 2.160156 167.789062 1.804688 167.9375 C 1.445312 168.085938 1.128906 168.296875 0.855469 168.574219 C 0.582031 168.847656 0.371094 169.164062 0.222656 169.519531 C 0.0742188 169.878906 0 170.25 0 170.640625 C 0 171.027344 0.0742188 171.398438 0.222656 171.757812 C 0.371094 172.113281 0.582031 172.429688 0.855469 172.703125 C 1.128906 172.980469 1.445312 173.191406 1.804688 173.339844 C 2.160156 173.488281 2.535156 173.5625 2.921875 173.5625 L 184.078125 173.5625 C 184.46875 173.5625 184.839844 173.488281 185.199219 173.339844 C 185.554688 173.191406 185.871094 172.980469 186.144531 172.703125 C 186.417969 172.429688 186.628906 172.113281 186.777344 171.757812 C 186.925781 171.398438 187 171.027344 187 170.640625 C 187 170.25 186.925781 169.878906 186.777344 169.519531 C 186.628906 169.164062 186.417969 168.847656 186.144531 168.574219 C 185.871094 168.296875 185.554688 168.085938 185.199219 167.9375 C 184.839844 167.789062 184.46875 167.71875 184.078125 167.71875 Z M 49.671875 167.71875 L 23.375 167.71875 C 18.613281 167.71875 14.609375 165.027344 14.609375 161.871094 L 14.609375 135.574219 C 14.609375 129.117188 21.15625 123.886719 29.21875 123.886719 L 52.59375 123.886719 C 53.332031 123.84375 54.066406 123.859375 54.800781 123.929688 C 55.535156 124 56.261719 124.125 56.976562 124.308594 C 57.691406 124.488281 58.390625 124.726562 59.070312 125.015625 C 59.75 125.304688 60.402344 125.644531 61.027344 126.035156 C 61.65625 126.425781 62.246094 126.859375 62.808594 127.34375 C 63.367188 127.824219 63.886719 128.34375 64.367188 128.90625 C 64.84375 129.46875 65.277344 130.0625 65.664062 130.691406 C 66.054688 131.320312 66.390625 131.972656 66.675781 132.652344 L 43.828125 132.652344 C 43.496094 132.644531 43.167969 132.691406 42.851562 132.792969 C 42.53125 132.894531 42.242188 133.046875 41.976562 133.25 C 41.710938 133.449219 41.484375 133.691406 41.300781 133.96875 C 41.117188 134.25 40.988281 134.550781 40.90625 134.875 L 35.707031 156.027344 L 29.21875 156.027344 L 29.21875 147.261719 C 29.21875 146.875 29.144531 146.503906 28.996094 146.144531 C 28.847656 145.789062 28.636719 145.472656 28.363281 145.199219 C 28.089844 144.921875 27.773438 144.710938 27.414062 144.5625 C 27.058594 144.414062 26.683594 144.339844 26.296875 144.339844 C 25.910156 144.339844 25.535156 144.414062 25.179688 144.5625 C 24.820312 144.710938 24.503906 144.921875 24.230469 145.199219 C 23.957031 145.472656 23.746094 145.789062 23.597656 146.144531 C 23.449219 146.503906 23.375 146.875 23.375 147.261719 L 23.375 158.949219 C 23.375 159.339844 23.449219 159.710938 23.597656 160.070312 C 23.746094 160.425781 23.957031 160.742188 24.230469 161.015625 C 24.503906 161.292969 24.820312 161.503906 25.179688 161.652344 C 25.535156 161.800781 25.910156 161.871094 26.296875 161.871094 L 57.941406 161.871094 C 57.640625 162.726562 57.214844 163.515625 56.667969 164.238281 C 56.121094 164.964844 55.476562 165.585938 54.734375 166.109375 C 53.996094 166.632812 53.191406 167.03125 52.328125 167.304688 C 51.464844 167.582031 50.578125 167.71875 49.671875 167.71875 Z M 73.691406 167.71875 L 61.359375 167.71875 C 62.316406 166.457031 63.042969 165.074219 63.542969 163.574219 C 64.042969 162.074219 64.289062 160.53125 64.28125 158.949219 C 64.28125 158.5625 64.207031 158.191406 64.058594 157.832031 C 63.910156 157.476562 63.699219 157.160156 63.425781 156.886719 C 63.152344 156.609375 62.835938 156.398438 62.476562 156.25 C 62.121094 156.101562 61.746094 156.027344 61.359375 156.027344 L 41.726562 156.027344 L 46.109375 138.496094 L 80.996094 138.496094 Z M 113.3125 167.71875 L 106.007812 138.496094 L 140.894531 138.496094 L 145.277344 156.027344 L 125.640625 156.027344 C 125.253906 156.027344 124.882812 156.101562 124.523438 156.25 C 124.164062 156.398438 123.847656 156.609375 123.574219 156.886719 C 123.300781 157.160156 123.089844 157.476562 122.941406 157.832031 C 122.792969 158.191406 122.71875 158.5625 122.71875 158.949219 C 122.710938 160.53125 122.957031 162.074219 123.457031 163.574219 C 123.957031 165.074219 124.683594 166.457031 125.640625 167.71875 Z M 172.390625 161.871094 C 172.390625 165.027344 168.390625 167.71875 163.625 167.71875 L 137.328125 167.71875 C 136.421875 167.71875 135.535156 167.582031 134.671875 167.304688 C 133.808594 167.03125 133.007812 166.632812 132.265625 166.109375 C 131.523438 165.585938 130.882812 164.964844 130.335938 164.238281 C 129.785156 163.515625 129.363281 162.726562 129.058594 161.871094 L 160.703125 161.871094 C 161.089844 161.871094 161.464844 161.800781 161.824219 161.652344 C 162.179688 161.503906 162.496094 161.292969 162.769531 161.015625 C 163.042969 160.742188 163.253906 160.425781 163.402344 160.070312 C 163.550781 159.710938 163.625 159.339844 163.625 158.949219 L 163.625 147.261719 C 163.625 146.875 163.550781 146.503906 163.402344 146.144531 C 163.253906 145.789062 163.042969 145.472656 162.769531 145.199219 C 162.496094 144.921875 162.179688 144.710938 161.824219 144.5625 C 161.464844 144.414062 161.089844 144.339844 160.703125 144.339844 C 160.316406 144.339844 159.945312 144.414062 159.585938 144.5625 C 159.226562 144.710938 158.914062 144.921875 158.636719 145.199219 C 158.363281 145.472656 158.152344 145.789062 158.003906 146.144531 C 157.855469 146.503906 157.78125 146.875 157.78125 147.261719 L 157.78125 156.027344 L 151.296875 156.027344 L 146.09375 134.875 C 146.015625 134.550781 145.882812 134.25 145.699219 133.96875 C 145.515625 133.691406 145.292969 133.449219 145.027344 133.25 C 144.761719 133.046875 144.46875 132.894531 144.148438 132.792969 C 143.832031 132.691406 143.507812 132.644531 143.171875 132.652344 L 120.324219 132.652344 C 120.609375 131.972656 120.949219 131.320312 121.335938 130.691406 C 121.722656 130.0625 122.15625 129.46875 122.636719 128.90625 C 123.113281 128.34375 123.632812 127.824219 124.195312 127.34375 C 124.753906 126.859375 125.347656 126.425781 125.972656 126.035156 C 126.601562 125.644531 127.253906 125.304688 127.933594 125.015625 C 128.613281 124.726562 129.308594 124.488281 130.023438 124.308594 C 130.738281 124.125 131.464844 124 132.199219 123.929688 C 132.933594 123.859375 133.671875 123.84375 134.40625 123.886719 L 157.78125 123.886719 C 165.847656 123.886719 172.390625 129.117188 172.390625 135.574219 Z M 172.390625 161.871094 "/></g><path style=" stroke:none;fill-rule:nonzero;fill:#885da7;fill-opacity:1;" d="M 132.976562 47.917969 C 132.976562 47.058594 132.933594 46.199219 132.847656 45.339844 C 132.765625 44.484375 132.636719 43.632812 132.46875 42.789062 C 132.300781 41.945312 132.09375 41.109375 131.84375 40.285156 C 131.59375 39.460938 131.304688 38.652344 130.972656 37.855469 C 130.644531 37.058594 130.277344 36.28125 129.871094 35.523438 C 129.464844 34.761719 129.023438 34.023438 128.542969 33.308594 C 128.066406 32.59375 127.550781 31.902344 127.007812 31.238281 C 126.460938 30.570312 125.882812 29.933594 125.273438 29.324219 C 124.664062 28.714844 124.027344 28.136719 123.359375 27.589844 C 122.695312 27.042969 122.003906 26.53125 121.289062 26.054688 C 120.570312 25.574219 119.835938 25.132812 119.074219 24.726562 C 118.316406 24.320312 117.539062 23.953125 116.742188 23.625 C 115.945312 23.292969 115.136719 23.003906 114.3125 22.753906 C 113.488281 22.503906 112.652344 22.296875 111.808594 22.128906 C 110.964844 21.960938 110.113281 21.832031 109.257812 21.75 C 108.398438 21.664062 107.539062 21.621094 106.679688 21.621094 C 103.847656 21.621094 101.089844 22.078125 98.410156 22.996094 C 97.742188 22.339844 97.042969 21.722656 96.308594 21.144531 C 95.574219 20.566406 94.8125 20.027344 94.023438 19.527344 C 93.230469 19.03125 92.417969 18.574219 91.578125 18.164062 C 90.738281 17.753906 89.878906 17.386719 89 17.066406 C 88.125 16.75 87.230469 16.476562 86.324219 16.25 C 85.417969 16.027344 84.5 15.851562 83.574219 15.722656 C 82.648438 15.597656 81.71875 15.519531 80.785156 15.492188 C 79.851562 15.464844 78.917969 15.488281 77.984375 15.558594 C 77.054688 15.628906 76.128906 15.75 75.210938 15.921875 C 74.289062 16.09375 73.382812 16.3125 72.488281 16.578125 C 71.59375 16.84375 70.714844 17.160156 69.851562 17.519531 C 68.988281 17.882812 68.148438 18.285156 67.328125 18.738281 C 66.511719 19.1875 65.71875 19.679688 64.953125 20.214844 C 64.1875 20.75 63.449219 21.324219 62.746094 21.9375 C 62.039062 22.550781 61.371094 23.199219 60.734375 23.886719 C 60.097656 24.570312 59.5 25.285156 58.941406 26.035156 C 58.378906 26.785156 57.863281 27.558594 57.386719 28.363281 C 56.910156 29.167969 56.476562 29.996094 56.089844 30.84375 C 55.699219 31.695312 55.355469 32.5625 55.0625 33.449219 C 54.765625 34.335938 54.515625 35.234375 54.316406 36.148438 C 54.117188 37.0625 53.964844 37.980469 53.863281 38.910156 C 53.761719 39.839844 53.710938 40.773438 53.707031 41.707031 C 53.703125 42.640625 53.753906 43.574219 53.847656 44.503906 C 53.945312 45.433594 54.089844 46.351562 54.285156 47.265625 C 54.480469 48.179688 54.726562 49.082031 55.015625 49.96875 C 55.308594 50.859375 55.644531 51.726562 56.027344 52.582031 C 56.414062 53.433594 56.839844 54.261719 57.3125 55.066406 C 57.785156 55.875 58.300781 56.652344 58.855469 57.40625 C 59.410156 58.15625 60.003906 58.875 60.636719 59.566406 C 61.269531 60.253906 61.933594 60.90625 62.636719 61.523438 C 63.339844 62.140625 64.070312 62.71875 64.835938 63.257812 C 65.597656 63.796875 66.386719 64.292969 67.203125 64.75 L 65.917969 73.808594 C 65.820312 74.375 65.886719 74.925781 66.113281 75.453125 C 66.339844 75.984375 66.695312 76.410156 67.175781 76.730469 C 67.667969 77.0625 68.214844 77.226562 68.8125 77.226562 C 69.332031 77.230469 69.820312 77.101562 70.273438 76.847656 L 85.875 67.90625 C 86.863281 67.691406 87.839844 67.417969 88.796875 67.085938 C 90.539062 68.75 92.476562 70.148438 94.605469 71.28125 C 96.734375 72.410156 98.976562 73.234375 101.332031 73.75 L 116.875 82.601562 C 117.328125 82.859375 117.816406 82.984375 118.335938 82.980469 C 118.933594 82.984375 119.476562 82.816406 119.972656 82.484375 C 120.453125 82.164062 120.804688 81.738281 121.035156 81.210938 C 121.261719 80.679688 121.328125 80.132812 121.230469 79.5625 L 119.945312 70.503906 C 120.925781 69.929688 121.867188 69.296875 122.769531 68.597656 C 123.667969 67.902344 124.519531 67.152344 125.324219 66.34375 C 126.125 65.535156 126.875 64.679688 127.566406 63.777344 C 128.257812 62.871094 128.886719 61.925781 129.457031 60.941406 C 130.023438 59.957031 130.527344 58.9375 130.964844 57.886719 C 131.402344 56.832031 131.769531 55.757812 132.066406 54.660156 C 132.363281 53.5625 132.585938 52.445312 132.738281 51.320312 C 132.890625 50.191406 132.96875 49.058594 132.976562 47.917969 Z M 84.179688 62.179688 C 83.863281 62.246094 83.5625 62.351562 83.273438 62.5 L 72.433594 68.722656 L 73.046875 63.550781 C 73.109375 62.941406 72.988281 62.367188 72.6875 61.832031 C 72.390625 61.296875 71.964844 60.894531 71.410156 60.628906 C 70.6875 60.28125 69.984375 59.890625 69.308594 59.460938 C 68.628906 59.03125 67.980469 58.5625 67.355469 58.054688 C 66.734375 57.546875 66.144531 57.003906 65.585938 56.429688 C 65.023438 55.851562 64.503906 55.242188 64.015625 54.605469 C 63.527344 53.964844 63.078125 53.300781 62.671875 52.609375 C 62.261719 51.917969 61.894531 51.207031 61.570312 50.472656 C 61.242188 49.738281 60.964844 48.984375 60.726562 48.21875 C 60.492188 47.449219 60.300781 46.671875 60.15625 45.882812 C 60.011719 45.089844 59.914062 44.296875 59.859375 43.496094 C 59.808594 42.691406 59.804688 41.890625 59.851562 41.089844 C 59.894531 40.285156 59.984375 39.488281 60.121094 38.699219 C 60.257812 37.90625 60.441406 37.125 60.671875 36.355469 C 60.902344 35.585938 61.175781 34.832031 61.492188 34.09375 C 61.808594 33.359375 62.171875 32.640625 62.574219 31.945312 C 62.976562 31.25 63.417969 30.582031 63.898438 29.9375 C 64.378906 29.296875 64.898438 28.683594 65.453125 28.101562 C 66.003906 27.519531 66.589844 26.972656 67.207031 26.457031 C 67.828125 25.945312 68.472656 25.46875 69.148438 25.035156 C 69.820312 24.597656 70.519531 24.199219 71.238281 23.847656 C 71.960938 23.492188 72.699219 23.179688 73.457031 22.914062 C 74.210938 22.644531 74.984375 22.421875 75.765625 22.246094 C 76.550781 22.066406 77.339844 21.9375 78.140625 21.855469 C 78.9375 21.769531 79.738281 21.734375 80.542969 21.746094 C 81.347656 21.753906 82.144531 21.8125 82.941406 21.917969 C 83.738281 22.023438 84.527344 22.171875 85.304688 22.371094 C 86.082031 22.570312 86.847656 22.8125 87.597656 23.097656 C 88.347656 23.386719 89.078125 23.71875 89.789062 24.089844 C 90.5 24.464844 91.1875 24.878906 91.847656 25.332031 C 92.511719 25.789062 93.144531 26.28125 93.75 26.808594 C 94.351562 27.339844 94.925781 27.902344 95.460938 28.496094 C 96 29.09375 96.5 29.71875 96.964844 30.375 C 97.429688 31.03125 97.855469 31.710938 98.238281 32.417969 C 98.621094 33.121094 98.964844 33.847656 99.261719 34.59375 C 99.558594 35.339844 99.8125 36.101562 100.023438 36.875 C 100.230469 37.652344 100.394531 38.4375 100.511719 39.230469 C 100.628906 40.027344 100.695312 40.824219 100.71875 41.628906 C 100.742188 42.429688 100.714844 43.234375 100.644531 44.03125 C 100.570312 44.832031 100.453125 45.625 100.289062 46.410156 C 100.121094 47.199219 99.910156 47.972656 99.652344 48.734375 C 99.398438 49.492188 99.097656 50.238281 98.753906 50.960938 C 98.40625 51.6875 98.023438 52.390625 97.59375 53.070312 C 97.167969 53.753906 96.703125 54.40625 96.199219 55.03125 C 95.695312 55.65625 95.15625 56.25 94.582031 56.8125 C 94.007812 57.375 93.402344 57.898438 92.765625 58.390625 C 92.128906 58.878906 91.46875 59.332031 90.777344 59.746094 C 90.089844 60.15625 89.378906 60.527344 88.644531 60.855469 C 87.914062 61.1875 87.164062 61.46875 86.398438 61.710938 C 85.628906 61.953125 84.851562 62.144531 84.0625 62.292969 Z M 115.53125 66.355469 C 114.980469 66.625 114.554688 67.023438 114.253906 67.558594 C 113.953125 68.09375 113.835938 68.667969 113.894531 69.277344 L 114.625 74.449219 L 103.785156 68.371094 C 103.496094 68.226562 103.195312 68.117188 102.878906 68.050781 C 99.792969 67.445312 96.996094 66.191406 94.492188 64.28125 C 95.222656 63.816406 95.925781 63.320312 96.605469 62.785156 C 97.28125 62.253906 97.933594 61.6875 98.558594 61.09375 C 99.179688 60.496094 99.773438 59.867188 100.335938 59.214844 C 100.894531 58.558594 101.421875 57.878906 101.917969 57.167969 C 102.414062 56.460938 102.871094 55.734375 103.292969 54.980469 C 103.714844 54.226562 104.101562 53.457031 104.449219 52.664062 C 104.792969 51.875 105.101562 51.070312 105.367188 50.25 C 105.636719 49.429688 105.863281 48.597656 106.046875 47.753906 C 106.234375 46.910156 106.378906 46.0625 106.480469 45.203125 C 106.582031 44.347656 106.640625 43.488281 106.65625 42.625 C 106.675781 41.761719 106.648438 40.902344 106.582031 40.039062 C 106.515625 39.179688 106.402344 38.324219 106.253906 37.476562 C 106.101562 36.625 105.90625 35.785156 105.671875 34.957031 C 105.4375 34.125 105.164062 33.308594 104.847656 32.503906 C 104.535156 31.703125 104.179688 30.914062 103.789062 30.148438 C 103.394531 29.378906 102.964844 28.628906 102.5 27.902344 C 103.878906 27.609375 105.269531 27.464844 106.679688 27.464844 C 107.828125 27.472656 108.96875 27.570312 110.097656 27.769531 C 111.230469 27.964844 112.339844 28.257812 113.421875 28.640625 C 114.503906 29.023438 115.546875 29.496094 116.550781 30.054688 C 117.554688 30.613281 118.503906 31.253906 119.398438 31.972656 C 120.292969 32.691406 121.125 33.480469 121.886719 34.339844 C 122.648438 35.199219 123.332031 36.117188 123.941406 37.089844 C 124.550781 38.066406 125.074219 39.085938 125.507812 40.148438 C 125.945312 41.210938 126.289062 42.300781 126.542969 43.421875 C 126.796875 44.542969 126.953125 45.675781 127.011719 46.824219 C 127.074219 47.96875 127.039062 49.113281 126.910156 50.253906 C 126.777344 51.398438 126.550781 52.519531 126.230469 53.621094 C 125.910156 54.726562 125.5 55.792969 125 56.828125 C 124.5 57.863281 123.917969 58.847656 123.25 59.78125 C 122.585938 60.71875 121.84375 61.59375 121.03125 62.402344 C 120.21875 63.214844 119.339844 63.953125 118.402344 64.613281 C 117.464844 65.277344 116.480469 65.859375 115.445312 66.355469 Z M 115.53125 66.355469 "/><path style=" stroke:none;fill-rule:nonzero;fill:#885da7;fill-opacity:1;" d="M 76 42.074219 C 76 42.363281 75.96875 42.648438 75.914062 42.929688 C 75.859375 43.210938 75.773438 43.488281 75.664062 43.753906 C 75.554688 44.019531 75.417969 44.269531 75.261719 44.511719 C 75.101562 44.75 74.917969 44.972656 74.714844 45.175781 C 74.511719 45.378906 74.289062 45.558594 74.050781 45.71875 C 73.8125 45.878906 73.558594 46.015625 73.292969 46.125 C 73.027344 46.234375 72.753906 46.316406 72.472656 46.375 C 72.1875 46.429688 71.902344 46.457031 71.617188 46.457031 C 71.328125 46.457031 71.042969 46.429688 70.761719 46.375 C 70.476562 46.316406 70.203125 46.234375 69.9375 46.125 C 69.671875 46.015625 69.421875 45.878906 69.179688 45.71875 C 68.941406 45.558594 68.71875 45.378906 68.515625 45.175781 C 68.3125 44.972656 68.132812 44.75 67.972656 44.511719 C 67.8125 44.269531 67.675781 44.019531 67.566406 43.753906 C 67.457031 43.488281 67.375 43.210938 67.316406 42.929688 C 67.261719 42.648438 67.234375 42.363281 67.234375 42.074219 C 67.234375 41.789062 67.261719 41.503906 67.316406 41.21875 C 67.375 40.9375 67.457031 40.664062 67.566406 40.398438 C 67.675781 40.132812 67.8125 39.878906 67.972656 39.640625 C 68.132812 39.402344 68.3125 39.179688 68.515625 38.976562 C 68.71875 38.773438 68.941406 38.589844 69.179688 38.429688 C 69.421875 38.269531 69.671875 38.136719 69.9375 38.027344 C 70.203125 37.914062 70.476562 37.832031 70.761719 37.777344 C 71.042969 37.71875 71.328125 37.691406 71.617188 37.691406 C 71.902344 37.691406 72.1875 37.71875 72.472656 37.777344 C 72.753906 37.832031 73.027344 37.914062 73.292969 38.027344 C 73.558594 38.136719 73.8125 38.269531 74.050781 38.429688 C 74.289062 38.589844 74.511719 38.773438 74.714844 38.976562 C 74.917969 39.179688 75.101562 39.402344 75.261719 39.640625 C 75.417969 39.878906 75.554688 40.132812 75.664062 40.398438 C 75.773438 40.664062 75.859375 40.9375 75.914062 41.21875 C 75.96875 41.503906 76 41.789062 76 42.074219 Z M 76 42.074219 "/><path style=" stroke:none;fill-rule:nonzero;fill:#885da7;fill-opacity:1;" d="M 84.765625 42.074219 C 84.765625 42.363281 84.734375 42.648438 84.679688 42.929688 C 84.625 43.210938 84.539062 43.488281 84.429688 43.753906 C 84.320312 44.019531 84.183594 44.269531 84.027344 44.511719 C 83.867188 44.75 83.683594 44.972656 83.480469 45.175781 C 83.277344 45.378906 83.054688 45.558594 82.816406 45.71875 C 82.578125 45.878906 82.324219 46.015625 82.058594 46.125 C 81.792969 46.234375 81.519531 46.316406 81.238281 46.375 C 80.953125 46.429688 80.667969 46.457031 80.382812 46.457031 C 80.09375 46.457031 79.808594 46.429688 79.527344 46.375 C 79.242188 46.316406 78.96875 46.234375 78.703125 46.125 C 78.4375 46.015625 78.1875 45.878906 77.945312 45.71875 C 77.707031 45.558594 77.484375 45.378906 77.28125 45.175781 C 77.078125 44.972656 76.898438 44.75 76.738281 44.511719 C 76.578125 44.269531 76.441406 44.019531 76.332031 43.753906 C 76.222656 43.488281 76.140625 43.210938 76.082031 42.929688 C 76.027344 42.648438 76 42.363281 76 42.074219 C 76 41.789062 76.027344 41.503906 76.082031 41.21875 C 76.140625 40.9375 76.222656 40.664062 76.332031 40.398438 C 76.441406 40.132812 76.578125 39.878906 76.738281 39.640625 C 76.898438 39.402344 77.078125 39.179688 77.28125 38.976562 C 77.484375 38.773438 77.707031 38.589844 77.945312 38.429688 C 78.1875 38.269531 78.4375 38.136719 78.703125 38.027344 C 78.96875 37.914062 79.242188 37.832031 79.527344 37.777344 C 79.808594 37.71875 80.09375 37.691406 80.382812 37.691406 C 80.667969 37.691406 80.953125 37.71875 81.238281 37.777344 C 81.519531 37.832031 81.792969 37.914062 82.058594 38.027344 C 82.324219 38.136719 82.578125 38.269531 82.816406 38.429688 C 83.054688 38.589844 83.277344 38.773438 83.480469 38.976562 C 83.683594 39.179688 83.867188 39.402344 84.027344 39.640625 C 84.183594 39.878906 84.320312 40.132812 84.429688 40.398438 C 84.539062 40.664062 84.625 40.9375 84.679688 41.21875 C 84.734375 41.503906 84.765625 41.789062 84.765625 42.074219 Z M 84.765625 42.074219 "/><path style=" stroke:none;fill-rule:nonzero;fill:#885da7;fill-opacity:1;" d="M 93.53125 42.074219 C 93.53125 42.363281 93.5 42.648438 93.445312 42.929688 C 93.390625 43.210938 93.304688 43.488281 93.195312 43.753906 C 93.085938 44.019531 92.949219 44.269531 92.792969 44.511719 C 92.632812 44.75 92.449219 44.972656 92.246094 45.175781 C 92.042969 45.378906 91.820312 45.558594 91.582031 45.71875 C 91.34375 45.878906 91.089844 46.015625 90.824219 46.125 C 90.558594 46.234375 90.285156 46.316406 90.003906 46.375 C 89.71875 46.429688 89.433594 46.457031 89.148438 46.457031 C 88.859375 46.457031 88.574219 46.429688 88.292969 46.375 C 88.007812 46.316406 87.734375 46.234375 87.46875 46.125 C 87.203125 46.015625 86.953125 45.878906 86.710938 45.71875 C 86.472656 45.558594 86.25 45.378906 86.046875 45.175781 C 85.84375 44.972656 85.664062 44.75 85.503906 44.511719 C 85.34375 44.269531 85.207031 44.019531 85.097656 43.753906 C 84.988281 43.488281 84.90625 43.210938 84.847656 42.929688 C 84.792969 42.648438 84.765625 42.363281 84.765625 42.074219 C 84.765625 41.789062 84.792969 41.503906 84.847656 41.21875 C 84.90625 40.9375 84.988281 40.664062 85.097656 40.398438 C 85.207031 40.132812 85.34375 39.878906 85.503906 39.640625 C 85.664062 39.402344 85.84375 39.179688 86.046875 38.976562 C 86.25 38.773438 86.472656 38.589844 86.710938 38.429688 C 86.953125 38.269531 87.203125 38.136719 87.46875 38.027344 C 87.734375 37.914062 88.007812 37.832031 88.292969 37.777344 C 88.574219 37.71875 88.859375 37.691406 89.148438 37.691406 C 89.433594 37.691406 89.71875 37.71875 90.003906 37.777344 C 90.285156 37.832031 90.558594 37.914062 90.824219 38.027344 C 91.089844 38.136719 91.34375 38.269531 91.582031 38.429688 C 91.820312 38.589844 92.042969 38.773438 92.246094 38.976562 C 92.449219 39.179688 92.632812 39.402344 92.792969 39.640625 C 92.949219 39.878906 93.085938 40.132812 93.195312 40.398438 C 93.304688 40.664062 93.390625 40.9375 93.445312 41.21875 C 93.5 41.503906 93.53125 41.789062 93.53125 42.074219 Z M 93.53125 42.074219 "/></g></svg>