<svg xmlns="http://www.w3.org/2000/svg" xmlns:xlink="http://www.w3.org/1999/xlink" width="250" zoomAndPan="magnify" viewBox="0 0 187.5 187.499992" height="250" preserveAspectRatio="xMidYMid meet" version="1.2"><g id="3e182c314f"><path style=" stroke:none;fill-rule:nonzero;fill:#885da7;fill-opacity:1;" d="M 93.601562 0 C 92.523438 0.0195312 91.671875 0.902344 91.683594 1.976562 L 91.683594 29.15625 C 91.714844 31.726562 95.558594 31.726562 95.578125 29.15625 L 95.578125 1.976562 C 95.597656 0.871094 94.707031 -0.0195312 93.601562 0 Z M 47.984375 12.203125 C 46.503906 12.265625 45.632812 13.878906 46.382812 15.148438 L 59.988281 38.695312 C 60.527344 39.628906 61.710938 39.941406 62.644531 39.40625 C 63.578125 38.867188 63.894531 37.679688 63.355469 36.746094 L 49.761719 13.210938 C 49.40625 12.558594 48.714844 12.175781 47.984375 12.203125 Z M 139.222656 12.203125 C 138.515625 12.203125 137.855469 12.582031 137.507812 13.210938 L 123.90625 36.746094 C 123.367188 37.679688 123.679688 38.867188 124.613281 39.40625 C 125.546875 39.953125 126.746094 39.628906 127.28125 38.695312 L 140.878906 15.148438 C 141.648438 13.859375 140.726562 12.214844 139.222656 12.203125 Z M 73.613281 16.234375 C 72.292969 16.203125 71.332031 17.449219 71.6875 18.707031 L 75.207031 31.835938 C 75.894531 34.3125 79.609375 33.316406 78.96875 30.832031 L 75.449219 17.703125 C 75.238281 16.851562 74.484375 16.253906 73.613281 16.234375 Z M 113.597656 16.234375 C 112.753906 16.285156 112.023438 16.871094 111.820312 17.703125 L 108.300781 30.832031 C 107.632812 33.339844 111.386719 34.34375 112.066406 31.835938 L 115.585938 18.71875 C 115.941406 17.429688 114.9375 16.160156 113.597656 16.234375 Z M 38.792969 36.300781 C 37.050781 36.300781 36.1875 38.421875 37.433594 39.636719 L 47.050781 49.246094 C 47.8125 50.015625 49.050781 50.015625 49.824219 49.257812 C 50.582031 48.496094 50.582031 47.257812 49.8125 46.496094 L 40.195312 36.890625 C 39.828125 36.503906 39.320312 36.289062 38.792969 36.300781 Z M 148.417969 36.300781 C 147.910156 36.3125 147.421875 36.523438 147.078125 36.890625 L 137.457031 46.496094 C 136.699219 47.257812 136.6875 48.496094 137.457031 49.257812 C 138.21875 50.015625 139.457031 50.015625 140.21875 49.257812 L 149.828125 39.636719 C 151.105469 38.402344 150.191406 36.25 148.417969 36.300781 Z M 93.640625 38.9375 C 66.144531 38.9375 43.796875 61.097656 43.796875 88.398438 C 43.796875 95.226562 45.195312 101.738281 47.710938 107.664062 C 50.238281 113.578125 53.890625 118.914062 58.394531 123.390625 C 60.65625 125.621094 63.125 127.640625 65.769531 129.414062 C 68.085938 130.96875 73.066406 134.882812 73.066406 143.140625 L 73.066406 152.769531 C 73.066406 152.820312 73.066406 152.871094 73.066406 152.914062 L 73.066406 167.105469 C 73.066406 178.113281 82.136719 187 93.285156 187 C 104.445312 187 113.515625 178.113281 113.515625 167.105469 L 113.515625 143.140625 C 113.515625 143.011719 113.515625 142.878906 113.496094 142.757812 C 113.667969 134.875 119.085938 131.039062 121.5 129.425781 C 124.160156 127.648438 126.625 125.621094 128.875 123.390625 C 133.390625 118.914062 137.03125 113.589844 139.558594 107.664062 C 142.085938 101.75 143.476562 95.234375 143.476562 88.40625 C 143.476562 61.105469 121.136719 38.9375 93.640625 38.9375 Z M 93.640625 42.835938 C 119.035156 42.835938 139.578125 63.214844 139.578125 88.398438 C 139.578125 94.699219 138.289062 100.683594 135.96875 106.132812 C 133.644531 111.578125 130.285156 116.492188 126.125 120.621094 C 124.046875 122.679688 121.765625 124.546875 119.320312 126.1875 C 116.679688 127.953125 109.578125 133.167969 109.578125 143.140625 C 109.578125 143.265625 109.589844 143.394531 109.621094 143.519531 L 109.621094 150.964844 L 95.679688 150.964844 L 95.679688 128.289062 C 100.132812 127.550781 103.726562 124.28125 103.777344 120 C 103.777344 119.96875 103.777344 119.941406 103.777344 119.910156 C 103.777344 118.164062 104.121094 116.511719 104.761719 115.007812 C 105.398438 113.507812 106.332031 112.148438 107.480469 111.011719 C 107.875 110.617188 108.289062 110.25 108.738281 109.917969 C 109.324219 110.269531 110.015625 110.472656 110.757812 110.472656 C 112.925781 110.472656 114.722656 108.679688 114.722656 106.507812 C 114.722656 104.335938 112.925781 102.539062 110.757812 102.539062 C 108.585938 102.539062 106.777344 104.335938 106.777344 106.507812 C 106.777344 106.515625 106.777344 106.515625 106.777344 106.515625 C 106.046875 107.035156 105.367188 107.613281 104.730469 108.242188 C 103.226562 109.734375 102.019531 111.507812 101.179688 113.488281 C 100.335938 115.464844 99.871094 117.636719 99.871094 119.910156 C 99.871094 122.273438 97.363281 124.554688 93.730469 124.554688 C 90.121094 124.554688 87.613281 122.304688 87.582031 119.949219 C 87.582031 119.929688 87.582031 119.917969 87.582031 119.910156 C 87.582031 113.527344 83.921875 107.988281 78.585938 105.25 C 79.800781 104.558594 80.929688 103.707031 81.914062 102.722656 C 82.601562 102.042969 83.230469 101.292969 83.777344 100.480469 C 84.207031 100.988281 84.582031 101.554688 84.894531 102.195312 C 85.363281 103.167969 86.539062 103.574219 87.503906 103.097656 C 88.476562 102.621094 88.871094 101.445312 88.394531 100.480469 C 86.851562 97.347656 84.164062 95.183594 81.109375 94.324219 C 80.929688 94.261719 80.734375 94.230469 80.53125 94.230469 C 78.28125 94.261719 77.875 97.457031 80.054688 98.054688 C 80.238281 98.105469 80.421875 98.167969 80.59375 98.238281 C 80.175781 98.847656 79.691406 99.425781 79.164062 99.953125 C 77.023438 102.082031 74.082031 103.390625 70.804688 103.390625 C 64.257812 103.390625 58.992188 98.15625 58.992188 91.652344 C 58.992188 90.03125 59.328125 88.5 59.917969 87.097656 C 60.515625 85.6875 61.378906 84.421875 62.453125 83.367188 C 63.519531 82.300781 64.796875 81.4375 66.207031 80.839844 C 66.480469 80.738281 66.753906 80.625 67.039062 80.535156 C 67.089844 81.234375 67.210938 81.933594 67.394531 82.644531 C 68.238281 85.808594 70.304688 88.355469 72.945312 89.878906 C 74.261719 90.648438 75.734375 91.15625 77.265625 91.371094 C 78.339844 91.53125 79.335938 90.792969 79.488281 89.714844 C 79.640625 88.640625 78.878906 87.65625 77.804688 87.515625 C 76.839844 87.371094 75.90625 87.058594 75.0625 86.601562 C 75.449219 86.46875 75.835938 86.308594 76.199219 86.105469 C 78.867188 84.703125 80.308594 81.679688 79.558594 78.757812 C 79.246094 77.371094 78.433594 76.183594 77.378906 75.351562 C 77.023438 75.066406 76.574219 74.914062 76.121094 74.914062 C 74.273438 74.953125 73.5 77.289062 74.960938 78.414062 C 75.378906 78.738281 75.671875 79.183594 75.773438 79.640625 L 75.785156 79.683594 L 75.804688 79.722656 C 76.058594 80.6875 75.398438 82.15625 74.394531 82.6875 L 74.363281 82.695312 L 74.34375 82.714844 C 73.421875 83.222656 72.089844 83.039062 71.421875 82.410156 C 71.332031 82.167969 71.238281 81.914062 71.179688 81.652344 C 70.03125 77.359375 72.570312 72.988281 76.890625 71.839844 C 77.964844 71.554688 79.042969 71.503906 80.078125 71.648438 C 81.109375 71.789062 82.09375 72.144531 82.988281 72.652344 C 83.878906 73.167969 84.671875 73.859375 85.3125 74.679688 C 85.625 75.085938 85.910156 75.53125 86.144531 76.011719 C 86.609375 77.003906 87.808594 77.421875 88.792969 76.933594 C 89.773438 76.445312 90.152344 75.238281 89.632812 74.265625 C 89.277344 73.554688 88.863281 72.894531 88.386719 72.285156 C 88.304688 72.175781 88.222656 72.082031 88.140625 71.980469 C 90.179688 70.722656 92.363281 70.308594 94.433594 70.855469 C 96.796875 71.476562 98.632812 73.238281 99.726562 75.816406 C 99.738281 75.828125 99.738281 75.828125 99.75 75.835938 C 99.757812 75.847656 99.757812 75.859375 99.769531 75.867188 C 100.285156 76.972656 100.457031 78.28125 100.203125 79.449219 C 99.949219 80.617188 99.351562 81.347656 98.714844 81.710938 C 97.78125 82.25 97.457031 83.445312 98.003906 84.378906 C 98.539062 85.324219 99.75 85.636719 100.679688 85.089844 C 102.34375 84.117188 103.554688 82.382812 104.007812 80.28125 C 104.457031 78.253906 104.171875 76.171875 103.359375 74.367188 C 103.351562 74.335938 103.339844 74.304688 103.328125 74.273438 C 103.125 73.796875 102.894531 73.332031 102.640625 72.886719 C 103.511719 72.683594 104.425781 72.570312 105.359375 72.570312 C 111.34375 72.570312 116.253906 76.941406 117.054688 82.65625 C 115.878906 82.726562 114.734375 82.988281 113.65625 83.425781 C 113.503906 83.464844 113.351562 83.539062 113.222656 83.617188 C 113.089844 83.679688 112.96875 83.761719 112.855469 83.851562 C 112.5 84.085938 112.09375 84.1875 111.648438 84.117188 C 110.65625 83.953125 109.925781 82.980469 110.085938 81.855469 C 110.167969 81.285156 110.453125 80.847656 110.835938 80.566406 C 112.339844 79.449219 111.558594 77.066406 109.679688 77.054688 C 109.246094 77.042969 108.816406 77.195312 108.472656 77.460938 C 107.296875 78.363281 106.464844 79.722656 106.230469 81.296875 C 105.773438 84.441406 107.894531 87.464844 111.039062 87.960938 C 112.492188 88.195312 113.929688 87.839844 115.066406 87.058594 C 116.660156 86.398438 118.488281 86.316406 120.230469 87.007812 C 123.8125 88.417969 125.570312 92.433594 124.167969 96.035156 C 123.824219 96.917969 123.328125 97.679688 122.71875 98.320312 C 122.109375 97.925781 121.378906 97.691406 120.605469 97.691406 C 118.4375 97.691406 116.640625 99.496094 116.640625 101.65625 C 116.640625 103.828125 118.4375 105.632812 120.605469 105.632812 C 122.699219 105.632812 124.441406 103.960938 124.5625 101.910156 C 125.964844 100.765625 127.101562 99.253906 127.800781 97.457031 C 129.960938 91.886719 127.203125 85.566406 121.664062 83.386719 C 121.449219 83.292969 121.238281 83.222656 121.023438 83.164062 C 120.433594 75.078125 113.628906 68.675781 105.359375 68.675781 C 103.503906 68.675781 101.707031 69 100.042969 69.585938 C 98.742188 68.410156 97.203125 67.527344 95.4375 67.0625 C 93.609375 66.585938 91.753906 66.605469 89.976562 67.03125 C 88.234375 67.445312 86.570312 68.25 85.078125 69.34375 C 85.039062 69.324219 84.996094 69.292969 84.957031 69.273438 C 83.628906 68.503906 82.167969 67.996094 80.632812 67.78125 C 79.09375 67.558594 77.488281 67.648438 75.894531 68.066406 C 71.675781 69.183594 68.582031 72.457031 67.464844 76.386719 C 66.523438 76.589844 65.597656 76.882812 64.714844 77.246094 C 62.839844 78.039062 61.144531 79.183594 59.722656 80.59375 C 58.304688 82.003906 57.15625 83.691406 56.355469 85.566406 C 55.566406 87.433594 55.117188 89.492188 55.117188 91.652344 C 55.117188 100.269531 62.179688 107.277344 70.8125 107.289062 C 70.894531 107.296875 70.964844 107.296875 71.035156 107.296875 C 78.046875 107.296875 83.679688 112.886719 83.707031 119.828125 C 83.707031 119.859375 83.707031 119.878906 83.707031 119.910156 C 83.707031 124.230469 87.320312 127.527344 91.804688 128.28125 L 91.804688 150.953125 L 76.980469 150.953125 L 76.980469 143.152344 C 76.980469 143.140625 76.980469 143.140625 76.980469 143.132812 C 76.980469 133.269531 70.753906 128.046875 67.960938 126.179688 C 65.527344 124.546875 63.246094 122.679688 61.164062 120.609375 C 57.003906 116.492188 53.648438 111.578125 51.324219 106.132812 C 49 100.683594 47.710938 94.6875 47.710938 88.398438 C 47.710938 63.214844 68.257812 42.824219 93.660156 42.824219 Z M 14.769531 45.554688 C 12.730469 45.480469 11.960938 48.199219 13.746094 49.207031 L 37.304688 62.789062 C 38.234375 63.339844 39.433594 63.023438 39.972656 62.089844 C 40.507812 61.148438 40.183594 59.949219 39.25 59.421875 L 15.691406 45.828125 C 15.417969 45.664062 15.09375 45.5625 14.769531 45.554688 Z M 172.632812 45.554688 C 172.257812 45.542969 171.894531 45.632812 171.566406 45.828125 L 148.019531 59.421875 C 147.078125 59.949219 146.742188 61.15625 147.289062 62.089844 C 147.828125 63.035156 149.035156 63.347656 149.96875 62.800781 L 173.515625 49.207031 C 175.242188 48.242188 174.601562 45.625 172.632812 45.554688 Z M 18.6875 71.046875 C 16.414062 71.097656 16.046875 74.324219 18.25 74.882812 L 31.386719 78.394531 C 32.433594 78.707031 33.527344 78.089844 33.8125 77.035156 C 34.097656 75.980469 33.457031 74.894531 32.390625 74.640625 L 19.253906 71.121094 C 19.070312 71.070312 18.878906 71.039062 18.6875 71.046875 Z M 168.523438 71.046875 C 168.351562 71.046875 168.179688 71.070312 168.007812 71.121094 L 154.878906 74.628906 C 153.8125 74.894531 153.164062 75.980469 153.449219 77.035156 C 153.730469 78.089844 154.839844 78.707031 155.882812 78.394531 L 169.023438 74.882812 C 171.253906 74.316406 170.828125 71.027344 168.523438 71.039062 Z M 86.773438 80.332031 C 85.921875 80.332031 85.160156 80.890625 84.914062 81.703125 C 83.921875 84.796875 84.082031 88.316406 85.605469 91.550781 C 87.117188 94.789062 89.714844 97.183594 92.726562 98.429688 C 93.730469 98.867188 94.886719 98.402344 95.304688 97.386719 C 95.71875 96.382812 95.234375 95.226562 94.207031 94.828125 C 92.109375 93.957031 90.242188 92.261719 89.136719 89.898438 C 89.074219 89.777344 89.015625 89.636719 88.964844 89.503906 C 91.175781 89.402344 93.265625 88.671875 94.980469 87.464844 C 96.523438 86.398438 95.832031 83.984375 93.957031 83.914062 C 93.519531 83.894531 93.082031 84.023438 92.726562 84.277344 C 91.488281 85.160156 89.886719 85.667969 88.191406 85.617188 C 88.203125 84.675781 88.34375 83.761719 88.617188 82.898438 C 89.042969 81.628906 88.101562 80.320312 86.773438 80.332031 Z M 65.984375 86.539062 C 65.476562 86.519531 64.980469 86.703125 64.605469 87.046875 C 61.4375 89.828125 61.144531 94.71875 63.925781 97.882812 C 66.703125 101.058594 71.585938 101.394531 74.75 98.605469 C 75.5625 97.894531 75.644531 96.667969 74.933594 95.855469 C 74.210938 95.042969 72.984375 94.972656 72.171875 95.683594 C 70.601562 97.070312 68.246094 96.917969 66.855469 95.328125 C 65.457031 93.722656 65.609375 91.359375 67.179688 89.96875 C 68.53125 88.8125 67.757812 86.601562 65.984375 86.539062 Z M 100.652344 88.417969 C 99.25 88.480469 98.378906 89.941406 98.96875 91.199219 C 99.75 92.902344 100.84375 94.425781 102.191406 95.632812 C 100.609375 97.082031 99.566406 98.980469 99.078125 101 C 98.816406 102.054688 99.464844 103.109375 100.519531 103.363281 C 101.574219 103.617188 102.628906 102.957031 102.875 101.902344 C 103.257812 100.269531 104.203125 98.828125 105.570312 97.925781 C 105.632812 97.882812 105.683594 97.851562 105.734375 97.8125 C 106.261719 98.015625 106.808594 98.175781 107.386719 98.289062 C 111.222656 99.082031 115.097656 97.761719 118.183594 95.214844 C 119.035156 94.535156 119.167969 93.296875 118.476562 92.457031 C 117.777344 91.613281 116.539062 91.503906 115.707031 92.203125 C 113.332031 94.171875 110.65625 94.980469 108.167969 94.476562 C 105.671875 93.96875 103.726562 92.242188 102.519531 89.59375 C 102.191406 88.855469 101.453125 88.398438 100.652344 88.429688 Z M 29.722656 91.105469 C 29.722656 91.105469 29.714844 91.105469 29.703125 91.105469 L 2.515625 91.105469 C 1.40625 91.074219 0.503906 91.949219 0.503906 93.054688 C 0.503906 94.148438 1.40625 95.03125 2.515625 95.003906 L 29.703125 95.003906 C 30.800781 95.03125 31.710938 94.160156 31.710938 93.0625 C 31.722656 91.96875 30.820312 91.085938 29.722656 91.105469 Z M 184.777344 91.105469 C 184.765625 91.105469 184.757812 91.105469 184.757812 91.105469 L 157.558594 91.105469 C 156.460938 91.074219 155.546875 91.949219 155.546875 93.054688 C 155.546875 94.148438 156.460938 95.03125 157.558594 95.003906 L 184.757812 95.003906 C 185.84375 95.03125 186.753906 94.160156 186.753906 93.0625 C 186.765625 91.96875 185.875 91.085938 184.777344 91.105469 Z M 88.863281 105.453125 C 87.785156 105.441406 86.914062 106.3125 86.902344 107.390625 C 86.832031 111.144531 89.957031 114.207031 93.730469 114.25 C 97.515625 114.277344 100.722656 111.304688 100.792969 107.550781 C 100.8125 104.984375 96.96875 104.914062 96.898438 107.480469 C 96.867188 109.054688 95.519531 110.363281 93.773438 110.351562 C 92.039062 110.332031 90.769531 109.035156 90.800781 107.460938 C 90.839844 106.363281 89.957031 105.453125 88.863281 105.453125 Z M 31.90625 107.632812 C 31.734375 107.632812 31.550781 107.664062 31.386719 107.703125 L 18.25 111.226562 C 17.203125 111.5 16.574219 112.574219 16.847656 113.617188 C 17.132812 114.664062 18.210938 115.28125 19.253906 114.988281 L 32.390625 111.46875 C 34.625 110.898438 34.207031 107.625 31.90625 107.632812 Z M 155.304688 107.632812 C 153.042969 107.683594 152.675781 110.921875 154.878906 111.46875 L 168.007812 114.988281 C 170.523438 115.660156 171.527344 111.894531 169.023438 111.226562 L 155.882812 107.714844 C 155.699219 107.652344 155.496094 107.632812 155.304688 107.632812 Z M 76.960938 154.859375 L 109.621094 154.859375 L 109.621094 167.097656 C 109.621094 175.984375 102.386719 183.105469 93.285156 183.105469 C 84.183594 183.105469 76.960938 175.984375 76.960938 167.097656 Z M 81.882812 161.808594 C 79.304688 161.832031 79.304688 165.6875 81.882812 165.707031 L 104.6875 165.707031 C 105.773438 165.714844 106.65625 164.84375 106.65625 163.757812 C 106.65625 162.671875 105.773438 161.800781 104.6875 161.808594 Z M 101.613281 170.402344 C 101.605469 170.402344 101.59375 170.402344 101.585938 170.402344 L 84.976562 170.402344 C 83.878906 170.363281 82.957031 171.246094 82.957031 172.339844 C 82.957031 173.445312 83.878906 174.328125 84.976562 174.289062 L 101.585938 174.289062 C 102.691406 174.328125 103.605469 173.457031 103.605469 172.363281 C 103.613281 171.253906 102.710938 170.371094 101.613281 170.402344 Z M 101.613281 170.402344 "/></g></svg>