<svg xmlns="http://www.w3.org/2000/svg" xmlns:xlink="http://www.w3.org/1999/xlink" width="250" zoomAndPan="magnify" viewBox="0 0 187.5 187.499992" height="250" preserveAspectRatio="xMidYMid meet" version="1.2"><defs><clipPath id="0de9cad78e"><path d="M 0 30.089844 L 187 30.089844 L 187 157 L 0 157 Z M 0 30.089844 "/></clipPath></defs><g id="4a788045db"><g clip-rule="nonzero" clip-path="url(#0de9cad78e)"><path style=" stroke:none;fill-rule:nonzero;fill:#885da7;fill-opacity:1;" d="M 186.8125 32.234375 C 186.8125 32.210938 186.785156 32.1875 186.777344 32.164062 C 186.699219 31.925781 186.589844 31.699219 186.445312 31.492188 C 186.429688 31.46875 186.410156 31.445312 186.390625 31.421875 C 186.253906 31.238281 186.09375 31.078125 185.914062 30.933594 C 185.878906 30.910156 185.851562 30.882812 185.816406 30.855469 C 185.621094 30.714844 185.40625 30.605469 185.175781 30.523438 C 185.128906 30.503906 185.082031 30.492188 185.03125 30.476562 C 184.785156 30.398438 184.535156 30.355469 184.277344 30.355469 L 2.574219 30.355469 C 2.316406 30.355469 2.0625 30.398438 1.816406 30.476562 C 1.769531 30.492188 1.722656 30.503906 1.675781 30.523438 C 1.445312 30.601562 1.230469 30.714844 1.03125 30.855469 C 1 30.882812 0.96875 30.910156 0.9375 30.933594 C 0.753906 31.078125 0.597656 31.242188 0.457031 31.425781 C 0.441406 31.445312 0.417969 31.46875 0.402344 31.492188 C 0.261719 31.699219 0.152344 31.925781 0.0742188 32.164062 C 0.0625 32.191406 0.046875 32.210938 0.0390625 32.234375 C 0.03125 32.261719 0.0390625 32.285156 0.0273438 32.308594 C -0.0390625 32.535156 -0.0703125 32.765625 -0.0742188 33.003906 L -0.0742188 154.136719 C -0.0742188 154.488281 -0.0078125 154.828125 0.125 155.152344 C 0.261719 155.476562 0.453125 155.761719 0.699219 156.011719 C 0.949219 156.261719 1.234375 156.453125 1.558594 156.585938 C 1.886719 156.71875 2.222656 156.789062 2.574219 156.789062 L 184.277344 156.789062 C 184.628906 156.789062 184.964844 156.71875 185.289062 156.585938 C 185.613281 156.453125 185.902344 156.261719 186.148438 156.011719 C 186.398438 155.761719 186.589844 155.476562 186.722656 155.152344 C 186.859375 154.828125 186.925781 154.488281 186.925781 154.136719 L 186.925781 33.003906 C 186.921875 32.765625 186.886719 32.535156 186.820312 32.308594 C 186.816406 32.285156 186.820312 32.257812 186.8125 32.234375 Z M 175.523438 35.652344 L 93.425781 90.390625 L 11.324219 35.652344 Z M 5.222656 151.488281 L 5.222656 37.957031 L 91.953125 95.777344 C 92.398438 96.074219 92.890625 96.222656 93.425781 96.222656 C 93.960938 96.222656 94.449219 96.074219 94.894531 95.777344 L 181.625 37.957031 L 181.625 151.488281 Z M 5.222656 151.488281 "/></g></g></svg>