<svg xmlns="http://www.w3.org/2000/svg" xmlns:xlink="http://www.w3.org/1999/xlink" width="250" zoomAndPan="magnify" viewBox="0 0 187.5 187.499992" height="250" preserveAspectRatio="xMidYMid meet" version="1.2"><defs><clipPath id="d7a65a5dde"><path d="M 7.359375 0 L 179.644531 0 L 179.644531 186.988281 L 7.359375 186.988281 Z M 7.359375 0 "/></clipPath></defs><g id="9cdbf7960f"><g clip-rule="nonzero" clip-path="url(#d7a65a5dde)"><path style=" stroke:none;fill-rule:nonzero;fill:#885da7;fill-opacity:1;" d="M 177.71875 163.316406 L 177.71875 185.199219 L 102.355469 185.199219 L 98.128906 148.085938 L 99.078125 147.132812 C 100.816406 145.394531 100.816406 142.5625 99.078125 140.816406 L 96.65625 138.402344 C 94.921875 136.664062 92.089844 136.660156 90.339844 138.402344 L 87.925781 140.816406 C 87.078125 141.664062 86.617188 142.785156 86.617188 143.976562 C 86.617188 145.167969 87.078125 146.292969 87.925781 147.132812 L 88.875 148.085938 L 84.644531 185.199219 L 9.296875 185.199219 L 9.292969 163.25 C 8.601562 153.652344 10.4375 145.679688 14.75 139.546875 C 20.289062 131.679688 28.496094 128.996094 39.851562 125.277344 C 44.222656 123.847656 49.175781 122.226562 54.613281 120.101562 C 57.882812 118.820312 61.375 117.308594 65.011719 115.601562 C 65.691406 119.472656 66.710938 124.300781 67.476562 127.824219 C 68.410156 132.082031 69.175781 135.375 69.175781 135.375 C 69.265625 135.757812 69.589844 136.03125 69.984375 136.066406 C 70.378906 136.097656 70.742188 135.855469 70.878906 135.492188 C 72.425781 131.449219 81.324219 129.308594 85.714844 128.742188 L 101.0625 128.738281 C 104.671875 129.175781 114.382812 131.246094 116.003906 135.492188 C 116.144531 135.855469 116.488281 136.113281 116.902344 136.066406 C 117.292969 136.03125 117.625 135.757812 117.714844 135.375 C 117.738281 135.261719 120.199219 124.675781 121.628906 116.964844 C 122.519531 116.851562 123.421875 116.722656 124.335938 116.566406 C 125.476562 117.039062 126.570312 117.480469 127.589844 117.878906 C 134.144531 120.457031 139.9375 122.382812 145.050781 124.082031 C 157.980469 128.382812 166.53125 131.222656 172.253906 139.542969 C 176.542969 145.769531 178.382812 153.746094 177.71875 163.316406 Z M 76.917969 115.488281 C 76.074219 113.738281 75.410156 111.890625 74.941406 109.980469 L 74.96875 108.382812 C 75.933594 109.273438 76.871094 110.066406 77.816406 110.78125 L 77.855469 110.734375 C 77.871094 110.75 77.890625 110.765625 77.910156 110.78125 C 82.359375 114.160156 87.054688 116.082031 91.875 116.492188 C 92.050781 116.511719 92.230469 116.515625 92.40625 116.515625 C 92.617188 116.515625 92.824219 116.507812 93.035156 116.488281 C 93.617188 116.4375 95.066406 116.261719 98.632812 115.730469 L 98.664062 115.726562 C 98.804688 115.761719 98.9375 115.808594 99.082031 115.832031 L 104.035156 116.570312 C 104.230469 116.601562 104.433594 116.613281 104.625 116.613281 C 105.515625 116.613281 106.382812 116.316406 107.089844 115.757812 C 108.035156 115.863281 109.003906 115.9375 109.980469 115.992188 C 108.882812 118.125 107.195312 120.84375 105.300781 122.820312 C 104.164062 124.011719 102.625 125.621094 100.804688 126.9375 L 86.066406 126.9375 C 80.699219 123.089844 77.292969 116.261719 76.917969 115.488281 Z M 63 67.945312 C 63 61.871094 61.394531 56.292969 58.71875 52.410156 C 60.148438 52.5625 61.773438 52.710938 62.621094 52.710938 C 64.421875 52.710938 66.207031 52.550781 67.933594 52.21875 C 71.648438 51.511719 74.003906 50.292969 76.109375 49.199219 C 78.402344 48.015625 80.054688 47.160156 83.070312 47.117188 L 83.308594 47.117188 C 85.890625 47.117188 87.730469 47.785156 89.355469 48.386719 C 90.78125 48.910156 92.261719 49.457031 93.976562 49.457031 C 94.875 49.457031 95.742188 49.308594 96.636719 49.011719 C 100.023438 47.886719 102.699219 44.914062 104.59375 40.160156 C 106.535156 41.558594 108.5625 42.84375 110.636719 43.972656 C 115.773438 46.777344 122.972656 49.082031 130.085938 50.25 C 126.316406 54.078125 123.996094 60.734375 123.996094 67.945312 C 123.996094 73.835938 125.539062 79.160156 128 82.980469 C 125.503906 89.175781 122.214844 95.140625 119.148438 99 C 117.875 100.601562 115.503906 103.585938 112.308594 106.503906 C 111.371094 107.355469 108.882812 109.234375 107.757812 110.070312 C 107.128906 109.273438 106.242188 108.734375 105.222656 108.585938 L 100.269531 107.847656 C 99.210938 107.683594 98.136719 107.949219 97.273438 108.59375 C 96.402344 109.234375 95.835938 110.179688 95.683594 111.246094 C 95.515625 112.347656 95.8125 113.414062 96.429688 114.246094 C 94.308594 114.542969 93.320312 114.664062 92.871094 114.703125 C 92.589844 114.730469 92.3125 114.734375 92.03125 114.710938 C 87.550781 114.324219 83.167969 112.523438 78.992188 109.355469 C 77.59375 108.289062 76.203125 107.058594 74.75 105.585938 C 74.675781 105.503906 74.582031 105.449219 74.484375 105.410156 C 67.976562 98.714844 61.695312 86.667969 59.476562 82.179688 C 61.660156 78.4375 63 73.441406 63 67.945312 Z M 57.117188 50.417969 C 56.292969 49.554688 55.402344 48.824219 54.449219 48.261719 C 56.03125 24.382812 75.15625 13.496094 92.386719 13.496094 C 109.828125 13.496094 128.824219 24.464844 130.320312 48.472656 C 123.414062 47.332031 116.453125 45.105469 111.5 42.402344 C 109.152344 41.121094 106.867188 39.644531 104.710938 38.019531 C 104.484375 37.847656 104.183594 37.789062 103.917969 37.875 C 103.640625 37.957031 103.421875 38.164062 103.328125 38.433594 C 101.609375 43.296875 99.167969 46.28125 96.070312 47.308594 C 93.957031 48.015625 91.992188 47.445312 89.960938 46.699219 C 88.207031 46.054688 86.210938 45.324219 83.304688 45.324219 L 83.054688 45.324219 C 79.605469 45.375 77.605469 46.410156 75.261719 47.625 C 73.289062 48.640625 71.054688 49.796875 67.59375 50.460938 C 65.984375 50.765625 64.308594 50.921875 62.621094 50.921875 C 61.492188 50.921875 58.660156 50.613281 57.117188 50.417969 Z M 49.808594 87.152344 C 43.523438 87.152344 38.410156 78.535156 38.410156 67.945312 C 38.410156 67.929688 38.410156 67.914062 38.410156 67.902344 C 38.078125 60.257812 39.601562 52.65625 42.808594 45.9375 C 42.863281 45.828125 42.898438 45.714844 42.910156 45.601562 C 45.878906 15.496094 70.636719 1.785156 92.386719 1.785156 C 112.835938 1.785156 135.820312 13.703125 141.082031 40.324219 C 141.101562 40.441406 141.148438 40.546875 141.210938 40.640625 C 142.328125 42.351562 143.328125 44.128906 144.191406 45.929688 C 145.625 48.9375 146.703125 52.128906 147.453125 55.417969 L 147.433594 55.445312 C 147.441406 55.453125 147.453125 55.460938 147.460938 55.464844 C 148.371094 59.511719 148.773438 63.710938 148.59375 67.945312 C 148.59375 78.535156 143.480469 87.152344 137.195312 87.152344 C 130.902344 87.152344 125.789062 78.535156 125.789062 67.945312 C 125.789062 60.832031 128.132812 54.320312 131.902344 50.957031 C 132.097656 50.78125 132.207031 50.53125 132.203125 50.265625 C 131.558594 23.773438 111.109375 11.707031 92.386719 11.707031 C 74.207031 11.707031 54.007812 23.292969 52.625 48.722656 C 52.605469 49.078125 52.792969 49.410156 53.105469 49.566406 C 57.878906 52.035156 61.210938 59.59375 61.210938 67.945312 C 61.210938 78.535156 56.09375 87.152344 49.808594 87.152344 Z M 33.328125 66.902344 C 33.328125 62.292969 35.28125 58.378906 37.601562 55.886719 C 36.78125 59.824219 36.441406 63.886719 36.617188 67.960938 C 36.617188 71.980469 37.347656 75.726562 38.582031 78.917969 C 35.742188 76.570312 33.328125 72.242188 33.328125 66.902344 Z M 137.195312 88.941406 C 140.730469 88.941406 143.941406 86.703125 146.3125 83.085938 C 149.886719 81.707031 153.8125 77.777344 155.007812 72.445312 L 158.402344 72.445312 L 158.402344 72.613281 C 158.402344 73.308594 158.667969 73.96875 159.140625 74.492188 C 158.402344 79.496094 155.96875 88.660156 147.941406 96.984375 C 135.300781 110.109375 118.21875 110.894531 110.269531 110.425781 C 111.453125 109.523438 112.84375 108.441406 113.511719 107.828125 C 116.816406 104.808594 119.246094 101.753906 120.550781 100.113281 C 123.546875 96.339844 126.738281 90.644531 129.242188 84.664062 C 131.453125 87.335938 134.207031 88.941406 137.195312 88.941406 Z M 120.105469 115.773438 C 120.070312 115.847656 120 115.910156 119.984375 115.992188 C 118.953125 121.695312 117.265625 129.28125 116.449219 132.886719 C 113.382812 129.484375 106.636719 127.882812 103.269531 127.269531 C 104.585938 126.148438 105.710938 124.984375 106.597656 124.058594 C 109.40625 121.125 111.394531 117.230469 111.941406 116.109375 L 111.839844 116.058594 C 112.414062 116.070312 112.984375 116.105469 113.5625 116.105469 C 115.597656 116.105469 117.796875 116.007812 120.105469 115.773438 Z M 153.554688 65.503906 C 153.613281 65.957031 153.996094 66.292969 154.449219 66.292969 L 159.300781 66.292969 C 159.792969 66.292969 160.191406 65.890625 160.191406 65.398438 L 160.191406 64.332031 C 160.191406 63.734375 160.683594 63.246094 161.277344 63.246094 L 162.5 63.246094 C 163.097656 63.246094 163.585938 63.734375 163.585938 64.332031 L 163.585938 72.613281 C 163.585938 72.941406 163.425781 73.183594 163.289062 73.328125 C 163.164062 73.46875 163.085938 73.644531 163.066406 73.832031 C 162.570312 78.230469 160.363281 89.554688 150.671875 99.617188 C 138.96875 111.761719 124.03125 114.308594 113.5625 114.308594 C 111.300781 114.308594 109.003906 114.183594 106.910156 113.9375 C 106.648438 113.90625 106.375 113.992188 106.183594 114.179688 C 105.671875 114.675781 104.992188 114.910156 104.296875 114.800781 L 99.34375 114.0625 C 98.117188 113.875 97.273438 112.734375 97.449219 111.507812 C 97.632812 110.28125 98.78125 109.449219 100.007812 109.617188 L 104.960938 110.355469 C 105.652344 110.460938 106.25 110.878906 106.589844 111.511719 C 106.730469 111.761719 106.988281 111.9375 107.273438 111.972656 C 113.332031 112.667969 134.257812 113.773438 149.238281 98.226562 C 157.859375 89.273438 160.292969 79.378906 160.980469 74.277344 C 161.023438 73.957031 160.894531 73.640625 160.640625 73.445312 C 160.472656 73.320312 160.191406 73.042969 160.191406 72.613281 L 160.191406 71.546875 C 160.191406 71.050781 159.792969 70.648438 159.300781 70.648438 L 154.273438 70.648438 C 153.835938 70.648438 153.460938 70.964844 153.386719 71.398438 C 152.726562 75.25 150.382812 78.398438 147.886719 80.203125 C 149.453125 76.753906 150.386719 72.539062 150.386719 67.980469 C 150.535156 64.464844 150.289062 60.960938 149.699219 57.539062 C 151.550781 59.582031 153.183594 62.34375 153.554688 65.503906 Z M 173.730469 138.523438 C 167.664062 129.714844 158.894531 126.792969 145.617188 122.382812 C 140.527344 120.683594 134.757812 118.769531 128.242188 116.210938 C 127.308594 115.84375 126.304688 115.4375 125.269531 115.011719 C 134.042969 113.332031 143.753906 109.375 151.960938 100.859375 C 161.851562 90.597656 164.238281 79.046875 164.8125 74.296875 C 165.179688 73.800781 165.375 73.210938 165.375 72.613281 L 165.375 64.332031 C 165.375 62.746094 164.085938 61.457031 162.5 61.457031 L 161.277344 61.457031 C 159.691406 61.457031 158.402344 62.746094 158.402344 64.332031 L 158.402344 64.503906 L 155.21875 64.503906 C 154.449219 60.179688 151.675781 56.609375 149.070312 54.46875 C 148.296875 51.25 147.222656 48.117188 145.808594 45.15625 C 144.9375 43.335938 143.929688 41.539062 142.804688 39.804688 C 137.28125 12.304688 113.523438 -0.00390625 92.386719 -0.00390625 C 69.894531 -0.00390625 44.289062 14.160156 41.144531 45.261719 C 39.992188 47.683594 39.074219 50.21875 38.347656 52.820312 C 34.957031 55.226562 31.539062 60.503906 31.539062 66.902344 C 31.539062 74.277344 35.757812 80.039062 39.929688 81.914062 L 39.957031 81.855469 C 42.371094 86.195312 45.890625 88.941406 49.808594 88.941406 C 53.066406 88.941406 56.042969 87.042969 58.347656 83.921875 C 60.925781 89.03125 66.902344 100.125 73.207031 106.648438 L 73.152344 110.0625 C 73.148438 110.136719 73.15625 110.210938 73.175781 110.285156 C 73.671875 112.355469 74.386719 114.371094 75.300781 116.269531 C 75.890625 117.484375 78.835938 123.222656 83.597656 127.273438 C 80.171875 127.890625 73.488281 129.484375 70.441406 132.886719 C 70.132812 131.527344 69.703125 129.617188 69.230469 127.441406 C 68.386719 123.578125 67.238281 118.132812 66.578125 114.136719 C 66.53125 113.855469 66.355469 113.617188 66.105469 113.488281 C 65.855469 113.355469 65.5625 113.351562 65.304688 113.472656 C 61.328125 115.375 57.507812 117.042969 53.957031 118.433594 C 48.570312 120.539062 43.644531 122.152344 39.292969 123.574219 C 27.609375 127.402344 19.167969 130.164062 13.289062 138.515625 C 8.726562 144.992188 6.78125 153.359375 7.507812 163.316406 L 7.507812 186.09375 C 7.507812 186.585938 7.90625 186.988281 8.398438 186.988281 L 85.445312 186.988281 C 85.902344 186.988281 86.28125 186.648438 86.332031 186.195312 L 90.703125 147.855469 C 90.734375 147.585938 90.640625 147.316406 90.449219 147.121094 L 89.191406 145.867188 C 88.6875 145.359375 88.40625 144.691406 88.40625 143.976562 C 88.40625 143.261719 88.6875 142.59375 89.191406 142.089844 L 91.613281 139.667969 C 92.65625 138.625 94.351562 138.625 95.390625 139.667969 L 97.808594 142.089844 C 98.851562 143.132812 98.851562 144.828125 97.808594 145.867188 L 96.550781 147.121094 C 96.359375 147.316406 96.265625 147.585938 96.296875 147.855469 L 100.664062 186.195312 C 100.722656 186.648438 101.105469 186.988281 101.558594 186.988281 L 178.613281 186.988281 C 179.109375 186.988281 179.507812 186.585938 179.507812 186.09375 L 179.507812 163.378906 C 180.199219 153.457031 178.253906 145.09375 173.730469 138.523438 "/></g></g></svg>