<svg xmlns="http://www.w3.org/2000/svg" xmlns:xlink="http://www.w3.org/1999/xlink" width="250" zoomAndPan="magnify" viewBox="0 0 187.5 187.499992" height="250" preserveAspectRatio="xMidYMid meet" version="1.2"><defs><clipPath id="4da6bb2948"><path d="M 33.894531 0 L 152.828125 0 L 152.828125 187 L 33.894531 187 Z M 33.894531 0 "/></clipPath></defs><g id="278f4fa76f"><g clip-rule="nonzero" clip-path="url(#4da6bb2948)"><path style=" stroke:none;fill-rule:nonzero;fill:#885da7;fill-opacity:1;" d="M 93.324219 25.855469 C 75.113281 25.855469 60.375 40.597656 60.375 58.804688 C 60.375 77.011719 75.113281 91.75 93.324219 91.75 C 111.53125 91.75 126.269531 77.011719 126.269531 58.804688 C 126.269531 40.632812 111.53125 25.855469 93.324219 25.855469 Z M 93.324219 87.496094 C 77.503906 87.496094 64.628906 74.625 64.628906 58.804688 C 64.628906 42.984375 77.503906 30.109375 93.324219 30.109375 C 109.144531 30.109375 122.015625 42.984375 122.015625 58.804688 C 122.015625 74.625 109.144531 87.496094 93.324219 87.496094 Z M 148.359375 35.183594 C 145.523438 28.433594 141.492188 22.3125 136.308594 17.089844 C 131.15625 11.828125 125.113281 7.6875 118.398438 4.777344 C 111.828125 1.902344 104.21875 0.335938 95.710938 0.0742188 C 94.777344 0 93.84375 0 92.949219 0 C 85.078125 0 78.210938 1.042969 72.019531 3.246094 C 65.078125 5.707031 58.734375 9.441406 53.210938 14.328125 C 47.691406 19.179688 43.25 25 39.964844 31.527344 C 36.609375 38.171875 34.59375 45.632812 34.070312 53.09375 C 33.960938 54.4375 33.921875 55.820312 33.921875 57.164062 C 33.921875 72.609375 41.460938 85.667969 48.734375 98.316406 C 49.519531 99.660156 50.300781 101.042969 51.046875 102.386719 L 93.359375 177.007812 L 135.671875 102.386719 C 136.417969 101.042969 137.203125 99.699219 137.984375 98.316406 C 145.261719 85.667969 152.800781 72.574219 152.800781 57.164062 C 152.761719 49.664062 151.230469 42.050781 148.359375 35.183594 Z M 131.941406 100.296875 C 127.6875 107.832031 123.433594 115.332031 119.144531 122.871094 C 114.664062 130.78125 110.1875 138.691406 105.671875 146.601562 C 102.390625 152.421875 99.105469 158.203125 95.824219 164.023438 C 95.003906 165.480469 94.179688 166.933594 93.324219 168.425781 C 92.503906 166.972656 91.679688 165.515625 90.824219 164.023438 C 87.539062 158.203125 84.257812 152.421875 80.972656 146.601562 C 76.496094 138.691406 72.019531 130.78125 67.503906 122.871094 C 63.25 115.332031 58.996094 107.832031 54.703125 100.296875 C 47.128906 86.9375 38.136719 73.09375 38.136719 57.164062 C 38.136719 55.894531 38.175781 54.625 38.289062 53.394531 C 38.773438 46.453125 40.636719 39.664062 43.773438 33.433594 C 46.792969 27.386719 51.011719 21.976562 56.046875 17.5 C 61.121094 13.023438 67.054688 9.515625 73.472656 7.238281 C 80.5625 4.738281 88.136719 4.03125 95.636719 4.289062 C 102.875 4.515625 110.113281 5.746094 116.753906 8.617188 C 122.949219 11.304688 128.621094 15.222656 133.359375 20.035156 C 138.023438 24.851562 141.828125 30.558594 144.441406 36.789062 C 147.128906 43.207031 148.507812 50.183594 148.507812 57.164062 C 148.507812 73.058594 139.515625 86.9375 131.941406 100.296875 Z M 107.613281 176.078125 C 107.613281 177.570312 101.195312 178.761719 93.324219 178.761719 C 85.414062 178.761719 79.03125 177.570312 79.03125 176.078125 C 79.03125 174.996094 82.578125 174.023438 87.652344 173.613281 L 88.023438 174.210938 C 84.515625 174.546875 82.128906 175.253906 82.128906 176.039062 C 82.128906 177.195312 87.128906 178.128906 93.324219 178.128906 C 99.515625 178.128906 104.515625 177.195312 104.515625 176.039062 C 104.515625 175.253906 102.167969 174.546875 98.695312 174.210938 L 99.070312 173.613281 C 104.105469 174.0625 107.613281 174.996094 107.613281 176.078125 Z M 136.269531 176.078125 C 136.269531 179.957031 131.902344 182.496094 122.128906 184.324219 C 114.40625 185.777344 104.179688 186.5625 93.359375 186.5625 C 82.503906 186.5625 72.277344 185.777344 64.59375 184.324219 C 54.816406 182.496094 50.453125 179.957031 50.453125 176.078125 C 50.453125 172.195312 54.816406 169.660156 64.59375 167.832031 C 69.742188 166.859375 76.011719 166.1875 82.800781 165.851562 L 84.667969 168.800781 C 66.792969 169.546875 53.472656 172.53125 53.472656 176.078125 C 53.472656 180.179688 71.347656 183.539062 93.398438 183.539062 C 115.449219 183.539062 133.320312 180.21875 133.320312 176.078125 C 133.320312 172.496094 119.925781 169.546875 102.015625 168.800781 L 103.769531 165.851562 C 110.671875 166.1875 117.015625 166.859375 122.203125 167.832031 C 131.902344 169.660156 136.269531 172.195312 136.269531 176.078125 Z M 136.269531 176.078125 "/></g></g></svg>