<svg xmlns="http://www.w3.org/2000/svg" xmlns:xlink="http://www.w3.org/1999/xlink" width="250" zoomAndPan="magnify" viewBox="0 0 187.5 187.499992" height="250" preserveAspectRatio="xMidYMid meet" version="1.2"><defs><clipPath id="38da3f3cd1"><path d="M 0 0 L 187 0 L 187 186.253906 L 0 186.253906 Z M 0 0 "/></clipPath></defs><g id="d3af92f460"><g clip-rule="nonzero" clip-path="url(#38da3f3cd1)"><path style=" stroke:none;fill-rule:nonzero;fill:#885da7;fill-opacity:1;" d="M 90.113281 32.265625 C 88.570312 32.265625 87.339844 33.496094 87.339844 35.039062 C 87.339844 36.578125 88.570312 37.8125 90.113281 37.8125 C 122.664062 37.8125 149.160156 64.304688 149.160156 96.910156 C 149.160156 98.449219 150.390625 99.683594 151.933594 99.683594 C 153.472656 99.683594 154.703125 98.449219 154.703125 96.910156 C 154.703125 61.277344 125.746094 32.265625 90.113281 32.265625 Z M 90.113281 0.0195312 C 88.570312 0.0195312 87.339844 1.253906 87.339844 2.792969 C 87.339844 4.332031 88.570312 5.566406 90.113281 5.566406 C 140.480469 5.566406 181.457031 46.539062 181.457031 96.910156 C 181.457031 98.449219 182.6875 99.683594 184.230469 99.683594 C 185.769531 99.683594 187 98.449219 187 96.910156 C 187 43.457031 143.511719 0.0195312 90.113281 0.0195312 Z M 176.21875 148.410156 L 153.011719 125.203125 C 149.828125 122.019531 146.539062 120.324219 142.945312 120.582031 C 138.324219 120.734375 135.5 123.867188 135.296875 124.070312 C 131.394531 128.078125 119.6875 137.988281 112.191406 135.46875 C 109.210938 134.445312 93.808594 119.65625 80.613281 105.945312 C 66.953125 92.75 52.21875 77.398438 51.140625 74.421875 C 48.625 66.921875 58.535156 55.164062 62.4375 51.417969 C 62.796875 51.109375 65.875 48.285156 66.03125 43.664062 C 66.132812 40.171875 64.59375 36.835938 61.359375 33.601562 L 38.203125 10.390625 C 31.011719 3.203125 23.15625 5.824219 19.871094 8.285156 C 7.238281 19.222656 0.71875 32.574219 0.511719 48.027344 C 0 90.183594 46.3125 133.261719 49.34375 135.984375 L 50.523438 137.164062 C 52.320312 139.167969 95.453125 186.046875 137.863281 186.046875 L 138.582031 186.046875 C 154.039062 185.839844 167.386719 179.320312 178.425781 166.585938 C 180.789062 163.453125 183.40625 155.597656 176.21875 148.410156 Z M 174.164062 163.144531 C 164.304688 174.542969 152.34375 180.398438 138.582031 180.550781 L 137.914062 180.550781 C 99.355469 180.550781 58.070312 137.164062 54.835938 133.671875 C 54.734375 133.519531 54.582031 133.367188 54.425781 133.210938 L 53.296875 132.132812 C 53.246094 132.082031 53.195312 132.03125 53.144531 131.980469 C 52.679688 131.566406 5.546875 88.230469 6.058594 48.078125 C 6.210938 34.269531 12.117188 22.304688 23.363281 12.546875 C 23.566406 12.394531 28.703125 8.644531 34.300781 14.292969 L 57.507812 37.503906 C 59.5625 39.554688 60.589844 41.558594 60.535156 43.40625 C 60.484375 45.71875 58.789062 47.257812 58.6875 47.359375 C 56.941406 49.054688 41.847656 64.101562 45.902344 76.21875 C 47.75 81.660156 69.984375 103.429688 76.710938 109.898438 C 83.230469 116.679688 105.003906 138.910156 110.445312 140.757812 C 122.511719 144.765625 137.605469 129.71875 139.351562 127.871094 C 139.351562 127.871094 140.894531 126.226562 143.152344 126.125 C 145.15625 126.074219 147.054688 127.101562 149.109375 129.15625 L 172.316406 152.363281 C 177.757812 157.753906 174.421875 162.785156 174.164062 163.144531 Z M 174.164062 163.144531 "/></g></g></svg>