<svg xmlns="http://www.w3.org/2000/svg" xmlns:xlink="http://www.w3.org/1999/xlink" width="250" zoomAndPan="magnify" viewBox="0 0 187.5 187.499992" height="250" preserveAspectRatio="xMidYMid meet" version="1.2"><defs><clipPath id="6dc07f93bc"><path d="M 3.15625 117 L 136 117 L 136 187 L 3.15625 187 Z M 3.15625 117 "/></clipPath></defs><g id="f58850e883"><path style=" stroke:none;fill-rule:nonzero;fill:#885da7;fill-opacity:1;" d="M 97.839844 80.339844 C 86.34375 80.339844 76.992188 89.695312 76.992188 101.1875 C 76.992188 112.683594 86.34375 122.039062 97.839844 122.039062 C 109.335938 122.039062 118.6875 112.683594 118.6875 101.1875 C 118.6875 89.695312 109.335938 80.339844 97.839844 80.339844 Z M 97.839844 116.074219 C 89.628906 116.074219 82.957031 109.398438 82.957031 101.1875 C 82.957031 92.980469 89.628906 86.304688 97.839844 86.304688 C 106.050781 86.304688 112.722656 92.980469 112.722656 101.1875 C 112.722656 109.398438 106.050781 116.074219 97.839844 116.074219 Z M 97.839844 116.074219 "/><path style=" stroke:none;fill-rule:nonzero;fill:#885da7;fill-opacity:1;" d="M 151.503906 87.746094 L 145.285156 72.738281 L 130.355469 73.503906 L 125.523438 68.671875 L 126.292969 53.742188 L 111.28125 47.527344 L 101.261719 58.621094 L 94.417969 58.621094 L 84.398438 47.527344 L 69.386719 53.742188 L 70.15625 68.671875 L 65.324219 73.503906 L 50.394531 72.738281 L 44.175781 87.746094 L 55.269531 97.765625 L 55.269531 104.601562 L 44.175781 114.617188 L 50.394531 129.628906 L 65.324219 128.863281 L 70.15625 133.695312 L 69.386719 148.625 L 84.398438 154.839844 L 94.417969 143.746094 L 101.261719 143.746094 L 111.28125 154.839844 L 126.292969 148.625 L 125.523438 133.695312 L 130.355469 128.863281 L 145.285156 129.628906 L 151.503906 114.617188 L 140.410156 104.601562 L 140.410156 97.765625 Z M 144.394531 116.222656 L 141.394531 123.46875 L 128.019531 122.78125 L 119.445312 131.359375 L 120.132812 144.730469 L 112.882812 147.730469 L 103.90625 137.792969 L 91.773438 137.792969 L 82.796875 147.730469 L 75.546875 144.730469 L 76.234375 131.359375 L 67.660156 122.78125 L 54.285156 123.46875 L 51.285156 116.222656 L 61.226562 107.246094 L 61.226562 95.109375 L 51.285156 86.132812 L 54.285156 78.886719 L 67.660156 79.574219 L 76.234375 70.996094 L 75.546875 57.625 L 82.796875 54.625 L 91.773438 64.5625 L 103.90625 64.5625 L 112.882812 54.625 L 120.132812 57.625 L 119.445312 70.996094 L 128.019531 79.574219 L 141.394531 78.886719 L 144.394531 86.132812 L 134.453125 95.109375 L 134.453125 107.246094 Z M 144.394531 116.222656 "/><g clip-rule="nonzero" clip-path="url(#6dc07f93bc)"><path style=" stroke:none;fill-rule:nonzero;fill:#885da7;fill-opacity:1;" d="M 97.921875 181.046875 C 63.617188 181.046875 33.5625 159.570312 22.390625 127.363281 L 36.859375 135.949219 C 38.304688 136.808594 40.167969 136.304688 40.984375 134.839844 C 41.773438 133.417969 41.246094 131.632812 39.847656 130.796875 L 18.359375 118.054688 C 17.808594 117.734375 17.109375 117.917969 16.789062 118.453125 L 4.011719 139.992188 C 3.175781 141.410156 3.636719 143.230469 5.054688 144.066406 C 5.535156 144.351562 6.050781 144.480469 6.566406 144.480469 C 7.585938 144.480469 8.570312 143.953125 9.128906 143.023438 L 16.9375 129.847656 C 19.617188 137.378906 23.328125 144.5 28.011719 151.039062 C 33.207031 158.308594 39.484375 164.699219 46.648438 170.035156 C 53.898438 175.4375 61.910156 179.628906 70.441406 182.511719 C 79.269531 185.488281 88.507812 187 97.910156 187 C 104.710938 187 111.488281 186.199219 118.046875 184.632812 C 123.429688 183.335938 128.683594 181.515625 133.710938 179.214844 C 135.246094 178.515625 135.875 176.675781 135.117188 175.175781 C 134.398438 173.742188 132.667969 173.136719 131.214844 173.8125 C 120.761719 178.609375 109.574219 181.046875 97.921875 181.046875 Z M 97.921875 181.046875 "/></g><path style=" stroke:none;fill-rule:nonzero;fill:#885da7;fill-opacity:1;" d="M 97.921875 21.160156 C 105.269531 21.160156 112.539062 22.15625 119.546875 24.125 L 102.054688 29.289062 C 100.472656 29.757812 99.582031 31.40625 100.039062 32.984375 C 100.417969 34.277344 101.605469 35.125 102.890625 35.125 C 103.164062 35.125 103.449219 35.09375 103.738281 35 L 127.757812 27.914062 C 128.363281 27.730469 128.707031 27.101562 128.535156 26.492188 L 121.449219 2.472656 C 120.980469 0.894531 119.332031 0 117.75 0.457031 C 116.171875 0.925781 115.277344 2.574219 115.734375 4.15625 L 119.835938 18.03125 C 112.710938 16.15625 105.363281 15.203125 97.921875 15.203125 C 86.320312 15.203125 75.078125 17.472656 64.488281 21.960938 C 54.265625 26.289062 45.070312 32.480469 37.179688 40.371094 C 29.292969 48.257812 23.097656 57.441406 18.769531 67.675781 C 14.683594 77.328125 12.441406 87.53125 12.074219 98.027344 C 12.015625 99.710938 13.367188 101.109375 15.050781 101.109375 C 16.652344 101.109375 17.96875 99.835938 18.027344 98.234375 C 19.539062 55.472656 54.800781 21.160156 97.921875 21.160156 Z M 97.921875 21.160156 "/><path style=" stroke:none;fill-rule:nonzero;fill:#885da7;fill-opacity:1;" d="M 178.179688 157.53125 L 162.6875 157.53125 C 176.347656 141.878906 183.824219 122.015625 183.824219 101.109375 C 183.824219 94.25 183.011719 87.414062 181.410156 80.808594 C 179.851562 74.386719 177.539062 68.144531 174.550781 62.238281 C 169.144531 51.601562 161.453125 42.066406 152.179688 34.496094 C 150.875 33.433594 148.949219 33.671875 147.929688 35.011719 C 146.957031 36.292969 147.1875 38.101562 148.421875 39.121094 C 167.164062 54.394531 177.859375 76.8125 177.859375 101.109375 C 177.859375 120.664062 170.839844 139.246094 158.007812 153.832031 L 158.007812 137.355469 C 158.007812 135.730469 156.734375 134.359375 155.109375 134.324219 C 153.425781 134.277344 152.050781 135.628906 152.050781 137.300781 L 152.050781 162.339844 C 152.050781 162.96875 152.566406 163.484375 153.195312 163.484375 L 178.238281 163.484375 C 179.910156 163.484375 181.257812 162.109375 181.214844 160.425781 C 181.167969 158.800781 179.804688 157.53125 178.179688 157.53125 Z M 178.179688 157.53125 "/></g></svg>