<svg xmlns="http://www.w3.org/2000/svg" xmlns:xlink="http://www.w3.org/1999/xlink" width="250" zoomAndPan="magnify" viewBox="0 0 187.5 187.499992" height="250" preserveAspectRatio="xMidYMid meet" version="1.2"><defs><clipPath id="893294494d"><path d="M 115 96 L 168.207031 96 L 168.207031 143 L 115 143 Z M 115 96 "/></clipPath></defs><g id="9f538f36e8"><path style=" stroke:none;fill-rule:nonzero;fill:#885da7;fill-opacity:1;" d="M 77.886719 145.367188 L 53.304688 177.945312 L 53.160156 159.183594 C 53.160156 158.3125 52.722656 157.585938 51.996094 157.003906 C 51.414062 156.566406 50.832031 156.421875 50.25 156.421875 C 50.105469 156.421875 49.816406 156.421875 49.667969 156.421875 L 28.289062 161.074219 L 49.085938 137.804688 C 48.214844 135.621094 47.632812 133.296875 47.195312 131.257812 L 21.015625 160.785156 C 19.851562 162.09375 19.707031 163.984375 20.582031 165.585938 C 21.453125 167.183594 23.199219 167.910156 24.945312 167.765625 C 25.089844 167.765625 25.089844 167.765625 25.234375 167.765625 L 47.488281 162.820312 L 47.777344 182.457031 C 47.925781 184.199219 49.085938 185.800781 50.832031 186.382812 C 51.269531 186.527344 51.707031 186.527344 52.140625 186.527344 C 53.453125 186.527344 54.761719 185.945312 55.632812 184.78125 L 82.25 149.292969 C 80.503906 148.128906 79.050781 146.675781 77.886719 145.367188 Z M 77.886719 145.367188 "/><path style=" stroke:none;fill-rule:nonzero;fill:#885da7;fill-opacity:1;" d="M 148.574219 149.585938 L 140.863281 149.585938 L 151.191406 161.21875 L 129.808594 156.566406 C 128.9375 156.421875 128.066406 156.566406 127.335938 157.148438 C 126.609375 157.730469 126.175781 158.457031 126.175781 159.328125 L 126.027344 177.945312 L 102.03125 146.09375 C 100.867188 147.546875 99.410156 148.859375 97.8125 150.019531 L 123.992188 184.929688 C 124.863281 185.945312 126.027344 186.527344 127.335938 186.527344 C 127.773438 186.527344 128.210938 186.527344 128.648438 186.382812 C 130.390625 185.800781 131.554688 184.347656 131.699219 182.457031 L 131.992188 162.964844 L 154.246094 167.910156 C 154.390625 167.910156 154.390625 167.910156 154.535156 167.910156 C 156.28125 168.203125 158.027344 167.328125 158.898438 165.730469 C 159.773438 164.128906 159.625 162.238281 158.460938 160.785156 Z M 148.574219 149.585938 "/><path style=" stroke:none;fill-rule:nonzero;fill:#885da7;fill-opacity:1;" d="M 89.667969 30.902344 C 66.394531 30.902344 47.488281 49.808594 47.488281 73.082031 C 47.488281 96.351562 66.394531 115.261719 89.667969 115.261719 C 112.9375 115.261719 131.847656 96.351562 131.847656 73.082031 C 131.847656 49.808594 112.9375 30.902344 89.667969 30.902344 Z M 89.667969 109.441406 C 69.59375 109.441406 53.304688 93.152344 53.304688 73.082031 C 53.304688 53.007812 69.59375 36.71875 89.667969 36.71875 C 109.738281 36.71875 126.027344 53.007812 126.027344 73.082031 C 126.027344 93.152344 109.738281 109.441406 89.667969 109.441406 Z M 89.667969 109.441406 "/><path style=" stroke:none;fill-rule:nonzero;fill:#885da7;fill-opacity:1;" d="M 109.011719 66.097656 L 97.375 64.5 L 92.285156 54.316406 C 91.847656 53.300781 90.832031 52.71875 89.667969 52.71875 C 88.503906 52.71875 87.632812 53.300781 87.050781 54.316406 L 81.957031 64.5 L 70.324219 66.097656 C 69.160156 66.246094 68.285156 66.972656 67.996094 68.136719 C 67.703125 69.152344 67.996094 70.316406 68.722656 71.191406 L 77.011719 79.042969 L 75.121094 90.097656 C 74.976562 91.117188 75.414062 92.28125 76.285156 93.007812 C 77.160156 93.734375 78.324219 93.734375 79.339844 93.296875 L 89.667969 88.0625 L 99.992188 93.296875 C 100.429688 93.441406 100.867188 93.589844 101.304688 93.589844 C 101.882812 93.589844 102.464844 93.441406 103.046875 93.007812 C 103.921875 92.28125 104.355469 91.261719 104.210938 90.097656 L 102.320312 78.898438 L 110.609375 71.042969 C 111.484375 70.316406 111.773438 69.152344 111.339844 67.988281 C 111.046875 66.972656 110.03125 66.246094 109.011719 66.097656 Z M 97.085938 75.84375 C 96.359375 76.570312 96.066406 77.445312 96.210938 78.460938 L 97.375 85.296875 L 90.832031 81.953125 C 90.394531 81.808594 89.957031 81.660156 89.523438 81.660156 C 89.085938 81.660156 88.648438 81.808594 88.210938 81.953125 L 81.667969 85.296875 L 82.832031 78.460938 C 82.976562 77.445312 82.6875 76.570312 81.957031 75.84375 L 76.867188 71.042969 L 83.996094 70.027344 C 84.867188 69.882812 85.738281 69.300781 86.175781 68.425781 L 89.375 62.027344 L 92.574219 68.425781 C 93.011719 69.300781 93.886719 69.882812 94.757812 70.027344 L 101.882812 71.042969 Z M 97.085938 75.84375 "/><path style=" stroke:none;fill-rule:nonzero;fill:#885da7;fill-opacity:1;" d="M 104.503906 133.730469 C 105.667969 133.441406 107.992188 134.605469 110.03125 135.621094 L 110.03125 129.222656 C 107.703125 128.203125 105.375 127.621094 103.195312 128.058594 C 99.847656 128.785156 97.519531 131.984375 95.195312 135.039062 C 93.738281 136.929688 91.558594 139.839844 90.394531 139.839844 C 89.230469 139.839844 86.902344 136.929688 85.59375 135.039062 C 83.265625 131.984375 80.796875 128.933594 77.449219 128.203125 C 77.011719 128.058594 76.429688 128.058594 75.996094 128.058594 C 73.085938 128.058594 70.175781 129.660156 67.269531 131.113281 C 65.085938 132.277344 61.742188 134.023438 60.722656 133.441406 C 59.707031 133.003906 58.976562 129.367188 58.542969 127.332031 C 57.816406 123.550781 56.941406 119.625 54.179688 117.441406 C 51.414062 115.40625 47.34375 115.550781 43.414062 115.695312 C 41.234375 115.839844 37.308594 115.988281 36.726562 115.113281 C 35.996094 114.242188 37.015625 110.605469 37.453125 108.425781 C 38.46875 104.789062 39.34375 101.007812 37.886719 97.953125 C 36.433594 94.898438 32.652344 93.296875 29.015625 91.84375 C 27.125 90.96875 23.34375 89.515625 23.199219 88.496094 C 22.90625 87.480469 25.527344 84.425781 26.835938 82.824219 C 29.308594 79.917969 31.925781 76.863281 31.925781 73.515625 C 31.925781 70.171875 29.308594 67.117188 26.6875 64.355469 C 25.234375 62.753906 22.617188 59.84375 22.90625 58.828125 C 23.199219 57.808594 26.6875 56.210938 28.726562 55.335938 C 32.363281 53.738281 35.996094 52.136719 37.453125 49.082031 C 38.90625 46.027344 37.886719 42.246094 36.871094 38.609375 C 36.289062 36.429688 35.269531 32.792969 35.996094 31.917969 C 36.726562 30.902344 40.652344 31.046875 42.980469 31.046875 C 46.761719 31.191406 50.832031 31.191406 53.304688 29.15625 C 56.070312 26.972656 56.796875 23.046875 57.523438 19.265625 C 57.960938 17.085938 58.6875 13.449219 59.558594 13.011719 C 60.578125 12.429688 64.070312 14.175781 66.105469 15.195312 C 69.59375 16.9375 73.085938 18.683594 76.429688 17.957031 C 79.777344 17.230469 82.105469 14.03125 84.429688 10.976562 C 85.59375 9.085938 87.777344 6.175781 88.941406 6.175781 C 90.101562 6.175781 92.429688 9.085938 93.738281 10.976562 C 96.066406 14.03125 98.539062 17.085938 101.882812 17.8125 C 105.230469 18.539062 108.71875 16.648438 112.066406 14.902344 C 114.394531 13.738281 117.738281 11.992188 118.757812 12.574219 C 119.773438 13.011719 120.5 16.648438 120.9375 18.828125 C 121.664062 22.609375 122.539062 26.539062 125.300781 28.71875 C 128.066406 30.757812 132.136719 30.609375 136.0625 30.464844 C 138.246094 30.320312 142.171875 30.175781 142.753906 31.046875 C 143.480469 31.917969 142.464844 35.554688 142.027344 37.738281 C 141.007812 41.375 140.136719 45.15625 141.589844 48.210938 C 143.046875 51.265625 146.828125 52.863281 150.464844 54.316406 C 152.355469 55.191406 156.136719 56.644531 156.28125 57.664062 C 156.570312 58.683594 153.953125 61.734375 152.644531 63.335938 C 150.171875 66.246094 147.554688 69.300781 147.554688 72.644531 C 147.554688 75.988281 150.171875 79.042969 152.789062 81.808594 C 154.246094 83.40625 156.863281 86.316406 156.570312 87.335938 C 156.28125 88.351562 152.789062 89.953125 150.753906 90.824219 C 150.316406 90.96875 149.882812 91.261719 149.445312 91.40625 C 149.882812 91.550781 150.171875 91.699219 150.609375 91.84375 C 152.355469 92.570312 153.953125 93.734375 155.261719 95.1875 C 158.609375 93.589844 161.515625 91.84375 162.246094 88.644531 C 163.117188 84.714844 160.0625 81.226562 157.152344 77.878906 C 155.554688 76.136719 153.371094 73.664062 153.371094 72.5 C 153.371094 71.335938 155.554688 68.863281 157.007812 66.972656 C 159.917969 63.625 162.828125 60.136719 161.953125 56.210938 C 160.933594 52.28125 156.71875 50.535156 152.644531 48.792969 C 150.464844 47.773438 147.261719 46.609375 146.828125 45.445312 C 146.246094 44.429688 147.117188 41.375 147.699219 39.046875 C 148.71875 34.972656 149.882812 30.320312 147.261719 27.121094 C 144.789062 24.066406 140.28125 24.355469 135.773438 24.503906 C 133.300781 24.648438 129.808594 24.792969 128.792969 23.921875 C 127.773438 23.046875 127.046875 19.847656 126.609375 17.519531 C 125.738281 13.300781 124.863281 8.9375 121.230469 7.195312 C 117.59375 5.449219 113.519531 7.628906 109.449219 9.667969 C 107.265625 10.832031 104.355469 12.285156 103.195312 11.992188 C 101.882812 11.703125 99.847656 9.085938 98.394531 7.195312 C 95.777344 3.847656 93.011719 0.359375 88.941406 0.359375 C 84.867188 0.359375 82.25 3.996094 79.484375 7.628906 C 78.03125 9.519531 76.140625 12.140625 74.832031 12.429688 C 73.523438 12.722656 70.613281 11.265625 68.433594 10.101562 C 64.503906 8.066406 60.289062 6.03125 56.652344 7.777344 C 53.015625 9.519531 52.140625 13.882812 51.414062 18.246094 C 50.980469 20.574219 50.398438 23.773438 49.378906 24.648438 C 48.507812 25.375 45.160156 25.375 42.832031 25.230469 C 38.324219 25.082031 33.671875 25.082031 31.199219 28.285156 C 28.578125 31.484375 29.890625 36.136719 31.050781 40.210938 C 31.632812 42.390625 32.507812 45.445312 32.070312 46.464844 C 31.488281 47.628906 28.433594 48.9375 26.253906 49.953125 C 22.179688 51.699219 18.109375 53.589844 17.234375 57.519531 C 16.363281 61.445312 19.417969 64.9375 22.324219 68.28125 C 23.925781 70.027344 26.109375 72.5 26.109375 73.664062 C 26.109375 74.824219 23.925781 77.296875 22.472656 79.191406 C 19.5625 82.535156 16.652344 86.027344 17.527344 89.953125 C 18.542969 93.878906 22.761719 95.625 26.835938 97.371094 C 29.015625 98.386719 32.214844 99.550781 32.652344 100.714844 C 33.234375 101.734375 32.363281 104.933594 31.78125 107.113281 C 30.761719 111.1875 29.597656 115.839844 32.214844 119.042969 C 34.6875 122.097656 39.199219 121.804688 43.707031 121.660156 C 46.179688 121.515625 49.667969 121.367188 50.6875 122.242188 C 51.707031 122.96875 52.433594 126.3125 52.871094 128.640625 C 53.742188 132.859375 54.613281 137.222656 58.25 138.96875 C 61.886719 140.714844 65.960938 138.53125 70.03125 136.496094 C 72.214844 135.332031 75.121094 133.878906 76.285156 134.167969 C 77.59375 134.457031 79.632812 137.078125 81.085938 138.96875 C 83.703125 142.457031 86.46875 145.949219 90.539062 145.949219 C 94.613281 145.949219 97.230469 142.3125 99.992188 138.675781 C 101.304688 136.640625 103.195312 134.023438 104.503906 133.730469 Z M 104.503906 133.730469 "/><g clip-rule="nonzero" clip-path="url(#893294494d)"><path style=" stroke:none;fill-rule:nonzero;fill:#885da7;fill-opacity:1;" d="M 167.042969 123.40625 C 167.769531 122.242188 168.207031 120.785156 168.207031 119.1875 C 168.207031 114.679688 164.425781 111.042969 159.625 111.042969 L 154.535156 111.042969 C 154.679688 110.023438 154.828125 109.152344 154.679688 108.570312 C 154.390625 106.097656 153.664062 99.550781 148.28125 97.078125 C 147.117188 96.496094 145.808594 96.207031 144.644531 96.207031 C 144.5 96.207031 144.355469 96.207031 144.210938 96.207031 C 142.464844 96.351562 140.71875 96.933594 139.265625 98.097656 C 135.773438 100.859375 135.917969 104.933594 136.0625 106.535156 C 136.0625 106.679688 136.0625 106.96875 136.0625 107.113281 L 136.0625 107.84375 C 135.335938 109.441406 133.15625 112.789062 132.28125 114.097656 C 131.847656 114.242188 131.265625 114.386719 130.828125 114.53125 C 129.808594 114.097656 128.648438 113.804688 127.484375 113.804688 L 121.664062 113.804688 C 118.464844 113.804688 115.847656 116.421875 115.847656 119.625 L 115.847656 137.078125 C 115.847656 140.277344 118.464844 142.894531 121.664062 142.894531 L 127.484375 142.894531 C 128.9375 142.894531 130.101562 142.3125 131.117188 141.585938 C 131.265625 141.585938 131.265625 141.585938 131.410156 141.585938 C 131.992188 141.585938 132.574219 141.585938 133.15625 141.585938 C 133.445312 141.585938 133.738281 141.585938 134.027344 141.585938 C 134.609375 142.023438 135.484375 142.457031 136.644531 142.75 C 137.082031 142.894531 137.664062 142.894531 138.101562 142.894531 L 155.554688 142.894531 C 160.207031 142.894531 163.988281 139.113281 163.988281 134.457031 C 163.988281 134.457031 163.988281 134.3125 163.988281 134.3125 C 165.007812 132.859375 165.589844 131.257812 165.589844 129.367188 C 165.589844 129.078125 165.589844 128.933594 165.589844 128.640625 C 166.460938 127.332031 166.898438 125.878906 166.898438 124.277344 C 167.191406 123.988281 167.042969 123.695312 167.042969 123.40625 Z M 127.484375 137.078125 L 121.664062 137.078125 L 121.664062 119.625 L 127.484375 119.625 Z M 159.625 121.804688 C 159.625 121.804688 161.226562 123.113281 161.226562 124.277344 C 161.226562 125.730469 160.0625 126.894531 158.460938 126.894531 C 158.460938 126.894531 159.917969 128.058594 159.917969 129.511719 C 159.917969 130.96875 158.753906 132.132812 157.300781 132.132812 C 157.300781 132.132812 158.316406 133.296875 158.316406 134.75 C 158.316406 136.203125 157.152344 137.367188 155.699219 137.367188 L 138.246094 137.367188 C 137.375 137.078125 136.644531 136.347656 135.773438 136.058594 C 135.628906 136.058594 135.191406 135.914062 134.609375 135.914062 C 134.171875 135.914062 133.738281 135.914062 133.300781 135.914062 L 133.300781 120.058594 C 134.609375 119.625 136.0625 119.1875 136.0625 119.1875 C 136.355469 118.460938 141.738281 110.605469 141.738281 109.003906 C 141.738281 108.425781 141.738281 107.988281 141.738281 107.40625 C 141.738281 105.804688 141.300781 104.0625 142.753906 102.898438 C 143.191406 102.460938 143.773438 102.167969 144.5 102.167969 C 144.5 102.167969 144.644531 102.167969 144.644531 102.167969 C 145.082031 102.167969 145.519531 102.316406 145.953125 102.460938 C 148.28125 103.480469 148.71875 107.113281 149.007812 109.152344 C 149.152344 110.316406 147.410156 116.421875 147.117188 116.859375 L 159.773438 116.859375 C 161.226562 116.859375 162.535156 117.734375 162.535156 119.1875 C 162.390625 120.640625 161.226562 121.804688 159.625 121.804688 Z M 159.625 121.804688 "/></g></g></svg>