<svg xmlns="http://www.w3.org/2000/svg" xmlns:xlink="http://www.w3.org/1999/xlink" width="250" zoomAndPan="magnify" viewBox="0 0 187.5 187.499992" height="250" preserveAspectRatio="xMidYMid meet" version="1.2"><defs><clipPath id="d80aaec595"><path d="M 0 9.351562 L 187 9.351562 L 187 177.652344 L 0 177.652344 Z M 0 9.351562 "/></clipPath></defs><g id="5d6f431949"><g clip-rule="nonzero" clip-path="url(#d80aaec595)"><path style=" stroke:none;fill-rule:nonzero;fill:#885da7;fill-opacity:1;" d="M 186.980469 49.550781 L 186.980469 165.101562 C 186.980469 166.710938 185.675781 168.015625 184.066406 168.015625 C 182.457031 168.015625 181.15625 166.710938 181.15625 165.101562 L 181.15625 51.367188 L 108.085938 15.601562 L 35.015625 51.367188 L 35.015625 127.054688 C 35.015625 128.660156 33.710938 129.964844 32.101562 129.964844 C 30.492188 129.964844 29.1875 128.664062 29.1875 127.054688 L 29.1875 49.550781 C 29.1875 48.4375 29.820312 47.421875 30.820312 46.933594 L 106.804688 9.742188 C 107.613281 9.347656 108.558594 9.347656 109.367188 9.742188 L 185.347656 46.933594 C 186.347656 47.421875 186.980469 48.4375 186.980469 49.550781 Z M 54.363281 60.8125 L 161.816406 60.8125 C 163.425781 60.8125 164.730469 62.117188 164.730469 63.726562 L 164.730469 75.191406 C 164.730469 76.800781 163.425781 78.105469 161.816406 78.105469 L 156.640625 78.105469 L 156.640625 125.359375 C 156.640625 126.96875 155.335938 128.273438 153.726562 128.273438 C 152.117188 128.273438 150.8125 126.96875 150.8125 125.359375 L 150.8125 78.105469 L 65.355469 78.105469 L 65.355469 110.222656 C 65.355469 111.832031 64.050781 113.136719 62.441406 113.136719 C 60.835938 113.136719 59.53125 111.832031 59.53125 110.222656 L 59.53125 78.105469 L 54.363281 78.105469 C 52.753906 78.105469 51.449219 76.800781 51.449219 75.191406 L 51.449219 63.726562 C 51.449219 62.117188 52.753906 60.8125 54.363281 60.8125 Z M 57.277344 72.277344 L 158.902344 72.277344 L 158.902344 66.636719 L 57.277344 66.636719 Z M 96.203125 151.980469 L 96.203125 165.101562 C 96.203125 166.710938 94.898438 168.015625 93.289062 168.015625 L 85.03125 168.015625 C 84.609375 173.40625 80.089844 177.664062 74.589844 177.664062 C 69.097656 177.664062 64.585938 173.40625 64.160156 168.015625 L 42.46875 168.015625 C 42.046875 173.40625 37.53125 177.664062 32.039062 177.664062 C 26.539062 177.664062 22.023438 173.40625 21.597656 168.015625 L 13.742188 168.015625 C 12.132812 168.015625 10.828125 166.710938 10.828125 165.101562 L 10.828125 113.523438 L 1.019531 101.203125 C 0.0195312 99.941406 0.226562 98.109375 1.484375 97.109375 C 2.742188 96.105469 4.578125 96.316406 5.578125 97.574219 L 16.023438 110.691406 C 16.433594 111.207031 16.65625 111.847656 16.65625 112.507812 L 16.65625 149.066406 L 23.359375 149.066406 L 23.359375 135.472656 C 23.359375 133.863281 24.664062 132.558594 26.273438 132.558594 L 39.570312 132.558594 L 39.570312 118.972656 C 39.570312 117.367188 40.875 116.0625 42.484375 116.0625 L 67.730469 116.0625 C 69.339844 116.0625 70.644531 117.363281 70.644531 118.972656 L 70.644531 132.558594 L 76.78125 132.558594 C 78.390625 132.558594 79.695312 133.863281 79.695312 135.472656 L 79.695312 149.066406 L 93.289062 149.066406 C 94.898438 149.066406 96.203125 150.371094 96.203125 151.980469 Z M 67.730469 138.386719 L 54.4375 138.386719 L 54.4375 149.066406 L 73.867188 149.066406 L 73.867188 138.386719 Z M 45.398438 132.558594 L 64.820312 132.558594 L 64.820312 121.886719 L 45.398438 121.886719 Z M 29.1875 149.066406 L 48.609375 149.066406 L 48.609375 138.386719 L 29.1875 138.386719 Z M 36.601562 168.015625 L 27.46875 168.015625 C 27.859375 170.183594 29.757812 171.835938 32.039062 171.835938 C 34.316406 171.835938 36.210938 170.183594 36.601562 168.015625 Z M 79.164062 168.015625 L 70.03125 168.015625 C 70.421875 170.183594 72.316406 171.835938 74.589844 171.835938 C 76.871094 171.835938 78.769531 170.183594 79.164062 168.015625 Z M 90.378906 154.894531 L 16.65625 154.894531 L 16.65625 162.1875 L 24.722656 162.1875 C 24.726562 162.1875 24.726562 162.1875 24.730469 162.1875 L 81.894531 162.1875 C 81.902344 162.1875 81.90625 162.1875 81.910156 162.1875 L 90.378906 162.1875 Z M 169.636719 133.832031 L 169.636719 165.101562 C 169.636719 166.710938 168.332031 168.015625 166.722656 168.015625 L 106.988281 168.015625 C 105.378906 168.015625 104.074219 166.710938 104.074219 165.101562 L 104.074219 136.742188 L 84.332031 136.742188 C 82.726562 136.742188 81.421875 135.4375 81.421875 133.828125 L 81.421875 104.292969 C 81.421875 102.683594 82.726562 101.378906 84.332031 101.378906 L 140.730469 101.378906 C 142.339844 101.378906 143.644531 102.683594 143.644531 104.292969 L 143.644531 130.917969 L 166.722656 130.917969 C 168.332031 130.917969 169.636719 132.222656 169.636719 133.832031 Z M 123.664062 130.917969 L 137.816406 130.917969 L 137.816406 107.207031 L 123.664062 107.207031 Z M 123.664062 143.613281 L 128.890625 143.613281 L 128.890625 136.742188 L 123.664062 136.742188 Z M 100.242188 113.375 L 104.851562 113.375 L 104.851562 107.207031 L 100.242188 107.207031 Z M 106.988281 130.917969 L 117.835938 130.917969 L 117.835938 107.207031 L 110.675781 107.207031 L 110.675781 116.289062 C 110.675781 117.898438 109.375 119.203125 107.765625 119.203125 L 97.332031 119.203125 C 95.722656 119.203125 94.417969 117.898438 94.417969 116.289062 L 94.417969 107.207031 L 87.246094 107.207031 L 87.246094 130.917969 Z M 142.652344 136.742188 L 134.71875 136.742188 L 134.71875 146.527344 C 134.71875 148.136719 133.414062 149.441406 131.804688 149.441406 L 120.75 149.441406 C 119.140625 149.441406 117.835938 148.136719 117.835938 146.527344 L 117.835938 136.742188 L 109.902344 136.742188 L 109.902344 162.1875 L 142.652344 162.1875 Z M 163.808594 136.742188 L 148.476562 136.742188 L 148.476562 162.1875 L 163.808594 162.1875 Z M 97.734375 52.308594 C 96.125 52.308594 94.820312 51.003906 94.820312 49.394531 L 94.820312 34.582031 C 94.820312 32.972656 96.125 31.667969 97.734375 31.667969 L 118.4375 31.667969 C 120.042969 31.667969 121.347656 32.972656 121.347656 34.582031 L 121.347656 49.394531 C 121.347656 51.003906 120.042969 52.308594 118.4375 52.308594 Z M 100.644531 46.484375 L 115.523438 46.484375 L 115.523438 37.496094 L 100.644531 37.496094 Z M 100.644531 46.484375 "/></g></g></svg>